<svg xmlns="http://www.w3.org/2000/svg" xmlns:xlink="http://www.w3.org/1999/xlink" width="500" zoomAndPan="magnify" viewBox="0 0 375 374.999991" height="500" preserveAspectRatio="xMidYMid meet" version="1.0"><defs><clipPath id="a86ac6c6ca"><path d="M 285 45.890625 L 326 45.890625 L 326 95 L 285 95 Z M 285 45.890625 " clip-rule="nonzero"/></clipPath><clipPath id="8f800361ab"><path d="M 159.355469 105.675781 L 284.664062 105.675781 L 284.664062 312.132812 L 159.355469 312.132812 Z M 159.355469 105.675781 " clip-rule="nonzero"/></clipPath><clipPath id="d1dad1e54d"><path d="M 187.347656 298.203125 L 241.949219 298.203125 L 241.949219 312.132812 L 187.347656 312.132812 Z M 187.347656 298.203125 " clip-rule="nonzero"/></clipPath></defs><path fill="#0f6d01" d="M 100.550781 191.703125 C 98.519531 210.109375 92.292969 220.269531 87.167969 224.941406 C 82.800781 228.925781 79.238281 228.925781 79.75 226.648438 C 85.09375 211.945312 80.113281 189.953125 75.300781 174.765625 C 72.117188 164.71875 69.007812 157.652344 69.007812 157.652344 L 73.769531 157.980469 L 100.0625 159.777344 C 101.539062 172.457031 101.511719 183.003906 100.550781 191.703125 " fill-opacity="1" fill-rule="nonzero"/><path fill="#cfe500" d="M 100.550781 191.703125 C 100.332031 193.710938 100.058594 195.621094 99.746094 197.4375 C 99.691406 197.75 99.632812 198.0625 99.574219 198.371094 C 98.667969 203.292969 97.4375 207.5 96.035156 211.066406 C 95.953125 211.273438 95.867188 211.484375 95.785156 211.695312 C 93.171875 218.097656 90 222.359375 87.167969 224.941406 C 84.625 226.195312 82.964844 225.722656 83.328125 224.117188 C 84.832031 219.96875 85.519531 215.238281 85.617188 210.246094 C 85.625 210.039062 85.625 209.832031 85.628906 209.621094 C 85.675781 205.214844 85.273438 200.617188 84.589844 196.042969 C 84.546875 195.742188 84.5 195.441406 84.449219 195.140625 C 83.277344 187.710938 81.378906 180.371094 79.441406 174.046875 C 79.253906 173.433594 79.066406 172.828125 78.875 172.234375 C 76.910156 166.019531 74.964844 160.945312 73.773438 157.976562 L 100.0625 159.777344 C 101.539062 172.457031 101.515625 183 100.550781 191.703125 " fill-opacity="1" fill-rule="nonzero"/><path fill="#8cb200" d="M 101.222656 177.335938 C 101.21875 176.902344 101.210938 176.464844 101.203125 176.027344 C 101.199219 175.84375 101.195312 175.65625 101.191406 175.472656 C 101.1875 175.34375 101.183594 175.214844 101.183594 175.085938 C 101.179688 174.996094 101.175781 174.910156 101.175781 174.820312 C 101.171875 174.707031 101.167969 174.589844 101.164062 174.476562 C 101.164062 174.398438 101.160156 174.320312 101.15625 174.242188 C 101.144531 173.859375 101.132812 173.46875 101.117188 173.082031 C 101.113281 172.933594 101.105469 172.789062 101.101562 172.644531 C 101.089844 172.457031 101.082031 172.269531 101.074219 172.082031 C 101.070312 172.023438 101.070312 171.960938 101.066406 171.902344 C 101.054688 171.640625 101.039062 171.375 101.027344 171.109375 C 101.023438 171.039062 101.019531 170.972656 101.015625 170.902344 C 101.007812 170.707031 100.996094 170.511719 100.984375 170.316406 L 100.984375 170.308594 C 100.949219 169.722656 100.914062 169.132812 100.875 168.535156 C 100.863281 168.363281 100.851562 168.195312 100.839844 168.027344 C 100.824219 167.792969 100.804688 167.558594 100.789062 167.328125 C 100.773438 167.125 100.757812 166.921875 100.742188 166.71875 C 100.730469 166.546875 100.714844 166.378906 100.703125 166.207031 C 100.664062 165.730469 100.621094 165.246094 100.578125 164.761719 C 100.566406 164.625 100.554688 164.488281 100.539062 164.351562 C 100.535156 164.277344 100.527344 164.207031 100.519531 164.132812 C 100.507812 163.984375 100.492188 163.832031 100.476562 163.683594 C 100.429688 163.160156 100.375 162.632812 100.320312 162.105469 C 100.300781 161.898438 100.277344 161.6875 100.253906 161.476562 C 100.25 161.441406 100.246094 161.40625 100.242188 161.371094 C 100.222656 161.179688 100.203125 160.984375 100.179688 160.792969 C 100.144531 160.453125 100.105469 160.117188 100.0625 159.777344 L 95.5625 159.46875 L 94.523438 159.398438 L 91.773438 159.210938 L 73.773438 157.976562 C 74.054688 158.679688 74.375 159.496094 74.734375 160.417969 C 74.765625 160.503906 74.800781 160.59375 74.835938 160.683594 C 74.882812 160.804688 74.925781 160.921875 74.972656 161.046875 C 75.011719 161.144531 75.050781 161.246094 75.089844 161.347656 C 75.132812 161.464844 75.179688 161.585938 75.222656 161.707031 C 75.246094 161.761719 75.265625 161.820312 75.289062 161.875 C 75.351562 162.046875 75.417969 162.21875 75.484375 162.394531 C 75.527344 162.511719 75.570312 162.632812 75.617188 162.75 C 75.753906 163.117188 75.890625 163.5 76.035156 163.886719 C 76.0625 163.960938 76.089844 164.039062 76.117188 164.117188 C 76.144531 164.191406 76.171875 164.269531 76.199219 164.347656 C 76.242188 164.464844 76.289062 164.585938 76.332031 164.707031 C 76.46875 165.089844 76.605469 165.476562 76.746094 165.875 C 76.773438 165.953125 76.804688 166.03125 76.832031 166.113281 C 77.226562 167.242188 77.636719 168.433594 78.050781 169.6875 C 78.136719 169.949219 78.222656 170.210938 78.3125 170.476562 C 78.40625 170.769531 78.503906 171.066406 78.601562 171.367188 C 78.644531 171.507812 78.691406 171.648438 78.734375 171.789062 C 78.78125 171.9375 78.828125 172.085938 78.875 172.234375 C 79.066406 172.828125 79.253906 173.433594 79.441406 174.046875 C 80.691406 173.835938 81.921875 173.628906 83.140625 173.425781 C 83.996094 173.285156 84.847656 173.148438 85.6875 173.011719 C 84.980469 173.226562 84.21875 173.40625 83.40625 173.546875 C 83.335938 173.769531 83.269531 173.996094 83.210938 174.222656 C 80.890625 183.128906 88.230469 191.601562 100.550781 191.703125 C 100.566406 191.5625 100.582031 191.421875 100.597656 191.28125 C 100.609375 191.183594 100.617188 191.085938 100.628906 190.988281 C 100.628906 190.976562 100.628906 190.96875 100.628906 190.960938 C 100.644531 190.8125 100.660156 190.664062 100.675781 190.511719 C 100.695312 190.3125 100.714844 190.113281 100.734375 189.910156 C 100.753906 189.707031 100.769531 189.503906 100.789062 189.300781 C 100.800781 189.144531 100.816406 188.984375 100.828125 188.824219 C 100.835938 188.734375 100.84375 188.640625 100.851562 188.550781 C 100.863281 188.390625 100.878906 188.230469 100.890625 188.066406 C 100.910156 187.820312 100.925781 187.570312 100.941406 187.320312 C 100.953125 187.152344 100.964844 186.980469 100.976562 186.808594 C 100.988281 186.648438 100.996094 186.492188 101.007812 186.332031 C 101.007812 186.328125 101.007812 186.324219 101.007812 186.324219 C 101.015625 186.164062 101.027344 186.007812 101.035156 185.847656 C 101.042969 185.6875 101.054688 185.523438 101.0625 185.363281 C 101.070312 185.199219 101.078125 185.035156 101.085938 184.875 C 101.09375 184.726562 101.101562 184.578125 101.105469 184.429688 C 101.140625 183.664062 101.167969 182.890625 101.1875 182.105469 C 101.191406 181.996094 101.191406 181.890625 101.195312 181.785156 C 101.207031 181.277344 101.214844 180.765625 101.21875 180.253906 C 101.222656 180.148438 101.222656 180.042969 101.222656 179.9375 C 101.222656 179.835938 101.226562 179.730469 101.226562 179.628906 C 101.226562 179.480469 101.226562 179.335938 101.230469 179.191406 C 101.230469 178.921875 101.230469 178.652344 101.230469 178.378906 C 101.226562 178.035156 101.226562 177.683594 101.222656 177.335938 " fill-opacity="1" fill-rule="nonzero"/><path fill="#0d5600" d="M 79.441406 174.050781 C 78.082031 174.277344 76.703125 174.519531 75.300781 174.765625 C 72.117188 164.71875 69.007812 157.652344 69.007812 157.652344 L 73.769531 157.980469 C 74.964844 160.945312 76.910156 166.019531 78.875 172.238281 C 79.0625 172.832031 79.253906 173.433594 79.441406 174.050781 " fill-opacity="1" fill-rule="nonzero"/><path fill="#6d3507" d="M 334.484375 111.929688 C 334.121094 112.238281 333.539062 112.628906 332.726562 113.105469 C 332.347656 113.328125 331.96875 113.550781 331.585938 113.769531 C 330.949219 114.140625 330.304688 114.511719 329.652344 114.882812 C 329.636719 114.890625 329.621094 114.898438 329.605469 114.910156 C 326.660156 116.582031 323.585938 118.253906 320.378906 119.90625 C 317.375 121.460938 314.25 123.003906 311.003906 124.523438 C 294.414062 132.296875 274.664062 139.585938 251.332031 145.410156 C 236.925781 149.007812 224.515625 151.722656 213.566406 153.804688 C 203.21875 155.769531 194.171875 157.167969 185.980469 158.203125 C 185.179688 158.308594 184.386719 158.40625 183.601562 158.5 C 183.292969 158.535156 182.984375 158.574219 182.675781 158.609375 C 181.167969 158.789062 179.691406 158.953125 178.238281 159.109375 C 178.027344 159.132812 177.820312 159.152344 177.609375 159.175781 C 176.621094 159.28125 175.644531 159.378906 174.675781 159.476562 C 167.140625 160.214844 160.25 160.6875 153.539062 161.105469 C 152.5 161.167969 151.46875 161.230469 150.433594 161.292969 C 148.996094 161.378906 147.5625 161.464844 146.125 161.554688 C 140.097656 161.917969 134.078125 162.296875 127.722656 162.855469 C 126.074219 163 124.402344 163.15625 122.699219 163.324219 C 122.527344 163.339844 122.359375 163.359375 122.1875 163.375 C 119.664062 163.632812 117.078125 163.921875 114.40625 164.25 C 110.085938 164.78125 105.542969 165.421875 100.703125 166.207031 C 95.875 166.992188 90.75 167.917969 85.246094 169.027344 C 83 169.476562 80.691406 169.960938 78.308594 170.476562 C 76.960938 170.765625 75.589844 171.070312 74.195312 171.382812 C 68.289062 172.710938 61.96875 174.234375 55.148438 175.992188 C 39.023438 180.148438 19.976562 185.226562 0 191.199219 L 0 160.984375 C 9.113281 158.503906 18.378906 156.230469 27.714844 154.246094 C 29.8125 150.699219 32.125 147.785156 34.574219 145.398438 C 36.402344 143.621094 38.308594 142.128906 40.269531 140.882812 C 42.007812 139.773438 43.78125 138.855469 45.574219 138.09375 C 46.386719 137.75 47.199219 137.4375 48.015625 137.15625 C 48.492188 136.988281 48.972656 136.835938 49.449219 136.6875 C 51.101562 136.183594 52.753906 135.789062 54.394531 135.480469 C 55.964844 135.183594 57.519531 134.964844 59.050781 134.800781 C 58.433594 135.085938 57.839844 135.429688 57.277344 135.828125 C 55.902344 136.792969 54.6875 138.054688 53.636719 139.457031 C 51.164062 142.746094 49.589844 146.796875 48.992188 149.515625 C 51.996094 148.746094 58.605469 147.453125 67.613281 145.953125 C 68.050781 145.878906 68.492188 145.804688 68.941406 145.730469 C 69.175781 145.691406 69.414062 145.65625 69.652344 145.617188 C 69.925781 145.570312 70.203125 145.527344 70.484375 145.480469 C 72.5 145.152344 74.621094 144.820312 76.832031 144.480469 C 76.835938 144.480469 76.835938 144.480469 76.835938 144.480469 C 78.722656 144.1875 80.675781 143.894531 82.691406 143.601562 C 86.695312 143.015625 90.933594 142.425781 95.351562 141.84375 C 99.351562 141.316406 103.496094 140.796875 107.742188 140.296875 C 107.917969 140.277344 108.09375 140.253906 108.269531 140.234375 C 109.210938 140.125 110.160156 140.015625 111.109375 139.90625 C 111.359375 139.878906 111.609375 139.851562 111.863281 139.820312 C 114.988281 139.46875 118.164062 139.128906 121.371094 138.804688 C 121.8125 138.761719 122.253906 138.714844 122.699219 138.671875 C 123.921875 138.550781 125.144531 138.429688 126.375 138.316406 C 126.820312 138.273438 127.269531 138.230469 127.71875 138.1875 C 131.074219 137.875 134.449219 137.585938 137.832031 137.320312 C 139.421875 137.195312 141.015625 137.074219 142.605469 136.960938 C 142.605469 136.960938 142.605469 136.960938 142.609375 136.960938 C 143.464844 136.898438 144.320312 136.839844 145.175781 136.785156 C 145.390625 136.769531 145.605469 136.753906 145.816406 136.738281 C 147.351562 136.636719 148.875 136.535156 150.378906 136.429688 C 151.085938 136.378906 151.789062 136.332031 152.488281 136.285156 C 154.84375 136.121094 157.160156 135.953125 159.4375 135.789062 C 160.675781 135.699219 161.90625 135.609375 163.121094 135.515625 C 164.039062 135.449219 164.949219 135.378906 165.855469 135.308594 C 166.460938 135.261719 167.066406 135.214844 167.664062 135.167969 C 168.265625 135.125 168.859375 135.078125 169.453125 135.03125 C 170.59375 134.9375 171.722656 134.847656 172.835938 134.757812 C 173.109375 134.734375 173.382812 134.710938 173.652344 134.691406 C 176.796875 134.429688 179.851562 134.164062 182.800781 133.894531 C 183.617188 133.816406 184.425781 133.742188 185.226562 133.667969 C 188.414062 133.363281 191.476562 133.050781 194.40625 132.726562 C 196.226562 132.527344 197.996094 132.320312 199.714844 132.113281 C 200.199219 132.054688 200.675781 131.996094 201.148438 131.933594 C 202.894531 131.714844 204.582031 131.492188 206.214844 131.261719 C 209.261719 130.832031 212.105469 130.382812 214.738281 129.90625 C 222.101562 128.582031 227.820312 127.070312 231.644531 125.285156 C 232.890625 124.707031 234.355469 123.917969 236.007812 122.96875 C 236.207031 122.855469 236.410156 122.738281 236.617188 122.617188 C 237.628906 122.03125 238.703125 121.386719 239.832031 120.699219 C 240.84375 120.085938 241.898438 119.433594 242.992188 118.753906 C 245.257812 117.34375 247.6875 115.808594 250.234375 114.210938 C 250.960938 113.757812 251.699219 113.292969 252.441406 112.828125 C 255.707031 110.789062 259.132812 108.671875 262.621094 106.609375 C 263.6875 105.972656 264.757812 105.34375 265.835938 104.726562 C 270.746094 101.890625 275.714844 99.222656 280.460938 97.050781 C 283.140625 95.828125 285.746094 94.761719 288.234375 93.914062 C 289.007812 93.648438 289.777344 93.402344 290.527344 93.183594 C 292.710938 92.542969 294.78125 92.09375 296.703125 91.886719 C 295.8125 92.605469 294.871094 93.355469 293.894531 94.132812 C 280.226562 104.976562 259.3125 120.734375 259.195312 127.261719 C 259.109375 131.984375 310.621094 115.777344 328.753906 111.820312 C 333.625 110.753906 336.085938 110.578125 334.484375 111.929688 " fill-opacity="1" fill-rule="nonzero"/><path fill="#a55514" d="M 260.851562 134.527344 C 257.96875 135.3125 254.617188 136.1875 250.746094 137.152344 C 250.675781 137.171875 250.609375 137.1875 250.546875 137.203125 C 237.683594 140.414062 225.914062 142.996094 214.652344 145.085938 C 214.023438 145.203125 213.398438 145.316406 212.773438 145.429688 C 203.054688 147.191406 194.523438 148.433594 186.746094 149.359375 C 185.714844 149.480469 184.699219 149.597656 183.695312 149.710938 C 183.339844 149.75 182.980469 149.789062 182.625 149.828125 C 182.484375 149.84375 182.347656 149.859375 182.210938 149.871094 C 172.285156 150.941406 163.527344 151.527344 154.925781 152.101562 C 154.667969 152.117188 154.410156 152.136719 154.152344 152.152344 C 153.226562 152.214844 152.308594 152.277344 151.390625 152.339844 C 151.085938 152.359375 150.785156 152.382812 150.480469 152.402344 C 148.464844 152.539062 146.457031 152.679688 144.449219 152.832031 C 143.046875 152.9375 141.644531 153.050781 140.238281 153.167969 C 136.285156 153.5 132.292969 153.886719 128.175781 154.378906 C 126.375 154.589844 124.554688 154.828125 122.699219 155.085938 C 122.691406 155.085938 122.6875 155.085938 122.679688 155.089844 C 121.191406 155.296875 119.679688 155.519531 118.148438 155.761719 C 116.203125 156.070312 114.214844 156.40625 112.1875 156.773438 C 111.265625 156.941406 110.339844 157.101562 109.414062 157.261719 C 107.644531 157.566406 105.859375 157.859375 104.058594 158.148438 C 101.273438 158.59375 98.445312 159.027344 95.5625 159.46875 C 95.207031 159.523438 94.851562 159.578125 94.496094 159.632812 C 93.574219 159.773438 92.648438 159.917969 91.71875 160.058594 C 86.5625 160.859375 81.21875 161.714844 75.613281 162.75 C 74.222656 163.007812 72.816406 163.277344 71.390625 163.558594 C 65.835938 164.652344 60.019531 165.945312 53.867188 167.542969 C 36.660156 172.015625 18.378906 176.886719 0 182.265625 L 0 163.292969 C 9.726562 160.570312 19.527344 158.121094 29.242188 156.058594 L 31.453125 155.589844 L 32.605469 153.644531 C 36.109375 147.714844 40.433594 143.449219 45.863281 140.640625 C 45.171875 142.378906 44.699219 143.960938 44.429688 145.199219 L 43.589844 149.03125 L 42.644531 153.351562 L 46.816406 152.28125 L 50.734375 151.277344 C 51.914062 150.976562 54.859375 150.296875 61.347656 149.117188 C 67.644531 147.976562 75.503906 146.691406 84.347656 145.402344 C 85.351562 145.257812 86.367188 145.113281 87.394531 144.964844 C 93.984375 144.03125 101.0625 143.101562 108.402344 142.234375 C 108.757812 142.195312 109.117188 142.152344 109.476562 142.109375 C 109.773438 142.074219 110.074219 142.039062 110.375 142.003906 C 110.679688 141.96875 110.984375 141.933594 111.289062 141.898438 C 111.457031 141.882812 111.625 141.859375 111.796875 141.84375 C 115.0625 141.46875 118.371094 141.109375 121.703125 140.769531 C 122.035156 140.738281 122.367188 140.703125 122.699219 140.671875 C 124.054688 140.53125 125.414062 140.398438 126.777344 140.269531 C 130.585938 139.90625 134.414062 139.570312 138.234375 139.265625 C 139.53125 139.164062 140.828125 139.0625 142.125 138.96875 C 142.339844 138.953125 142.558594 138.933594 142.777344 138.921875 C 142.789062 138.917969 142.800781 138.917969 142.8125 138.917969 C 143.851562 138.84375 144.886719 138.769531 145.917969 138.699219 C 145.9375 138.699219 145.960938 138.699219 145.980469 138.695312 C 147.546875 138.589844 149.109375 138.484375 150.675781 138.378906 C 151.40625 138.328125 152.132812 138.277344 152.863281 138.226562 C 156.28125 137.988281 159.691406 137.746094 163.074219 137.496094 C 164.933594 137.355469 166.789062 137.214844 168.628906 137.070312 C 169.078125 137.039062 169.53125 137 169.980469 136.964844 C 171.050781 136.882812 172.121094 136.796875 173.183594 136.710938 C 173.789062 136.660156 174.398438 136.609375 175 136.558594 C 175.089844 136.550781 175.179688 136.542969 175.269531 136.535156 C 175.671875 136.503906 176.074219 136.46875 176.472656 136.4375 C 178.703125 136.246094 180.910156 136.054688 183.082031 135.855469 C 183.925781 135.777344 184.761719 135.699219 185.59375 135.621094 C 188.800781 135.316406 191.925781 135 194.949219 134.667969 C 196.734375 134.476562 198.484375 134.273438 200.191406 134.070312 C 200.644531 134.011719 201.09375 133.960938 201.539062 133.902344 C 202.980469 133.726562 204.386719 133.542969 205.761719 133.355469 C 209.019531 132.917969 212.085938 132.449219 214.929688 131.957031 C 215.40625 131.875 215.882812 131.789062 216.347656 131.707031 C 224.335938 130.261719 230.203125 128.632812 234.28125 126.726562 C 235.472656 126.171875 236.828125 125.453125 238.328125 124.609375 C 238.570312 124.472656 238.816406 124.332031 239.066406 124.191406 C 240.855469 123.160156 242.832031 121.964844 244.953125 120.65625 C 246.367188 119.78125 247.847656 118.855469 249.378906 117.894531 L 249.382812 117.894531 C 249.984375 117.515625 250.59375 117.128906 251.214844 116.742188 C 255.222656 114.21875 259.660156 111.429688 264.246094 108.683594 C 264.707031 108.402344 265.171875 108.128906 265.636719 107.855469 C 265.375 108.09375 265.117188 108.332031 264.867188 108.570312 C 264.863281 108.566406 264.863281 108.566406 264.863281 108.570312 C 259.808594 113.300781 256.730469 117.015625 255.355469 120.253906 C 255.222656 120.578125 255.101562 120.890625 255 121.203125 C 254.6875 122.152344 254.527344 123.058594 254.511719 123.945312 C 254.476562 125.722656 255.238281 127.398438 256.59375 128.550781 C 256.832031 128.753906 257.082031 128.933594 257.339844 129.097656 C 257.554688 129.230469 257.777344 129.351562 258.007812 129.460938 C 260.320312 130.5625 263.351562 130.359375 267.058594 129.6875 C 277.585938 127.78125 282.515625 128.632812 260.851562 134.527344 " fill-opacity="1" fill-rule="nonzero"/><path fill="#82440c" d="M 260.851562 134.527344 C 257.96875 135.3125 254.617188 136.1875 250.746094 137.152344 C 250.675781 137.171875 250.609375 137.1875 250.546875 137.203125 C 237.683594 140.414062 225.914062 142.996094 214.652344 145.085938 C 214.023438 145.203125 213.398438 145.316406 212.773438 145.429688 C 203.054688 147.191406 194.523438 148.433594 186.746094 149.359375 C 185.714844 149.480469 184.699219 149.597656 183.695312 149.710938 C 183.339844 149.75 182.980469 149.789062 182.625 149.828125 C 182.484375 149.84375 182.347656 149.859375 182.210938 149.871094 C 172.285156 150.941406 163.527344 151.527344 154.925781 152.101562 C 154.667969 152.117188 154.410156 152.136719 154.152344 152.152344 C 153.226562 152.214844 152.308594 152.277344 151.390625 152.339844 C 151.085938 152.359375 150.785156 152.382812 150.480469 152.402344 C 148.464844 152.539062 146.457031 152.679688 144.449219 152.832031 C 143.046875 152.9375 141.644531 153.050781 140.238281 153.167969 C 136.285156 153.5 132.292969 153.886719 128.175781 154.378906 C 126.375 154.589844 124.554688 154.828125 122.699219 155.085938 C 122.691406 155.085938 122.6875 155.085938 122.679688 155.089844 C 121.191406 155.296875 119.679688 155.519531 118.148438 155.761719 C 116.203125 156.070312 114.214844 156.40625 112.1875 156.773438 C 111.265625 156.941406 110.339844 157.101562 109.414062 157.261719 C 107.644531 157.566406 105.859375 157.859375 104.058594 158.148438 C 101.273438 158.59375 98.445312 159.027344 95.5625 159.46875 C 95.207031 159.523438 94.851562 159.578125 94.496094 159.632812 C 93.574219 159.773438 92.648438 159.917969 91.71875 160.058594 C 86.5625 160.859375 81.21875 161.714844 75.613281 162.75 C 74.222656 163.007812 72.816406 163.277344 71.390625 163.558594 C 65.835938 164.652344 60.019531 165.945312 53.867188 167.542969 C 36.660156 172.015625 18.378906 176.886719 0 182.265625 L 0 172.367188 C 10.691406 168.648438 21.457031 164.882812 32.074219 161.121094 L 34.285156 160.652344 L 35.433594 158.703125 C 37.765625 154.765625 40.453125 151.558594 43.589844 149.03125 L 42.644531 153.351562 L 41.820312 159.28125 L 53.566406 156.339844 C 54.742188 156.039062 65.1875 153.554688 71.46875 151.539062 C 77.078125 149.734375 82.5 148.464844 87.90625 147.546875 C 88.804688 147.394531 89.699219 147.25 90.597656 147.117188 C 98.5625 145.933594 106.550781 145.457031 115.121094 145.140625 C 117.433594 145.054688 119.785156 144.980469 122.191406 144.90625 C 122.363281 144.898438 122.53125 144.894531 122.699219 144.890625 C 124.269531 144.84375 125.863281 144.792969 127.484375 144.742188 C 134.058594 144.535156 141.054688 144.277344 148.675781 143.769531 C 148.722656 143.765625 148.765625 143.761719 148.8125 143.757812 C 149.613281 143.703125 150.414062 143.652344 151.21875 143.597656 C 152.019531 143.542969 152.820312 143.492188 153.621094 143.4375 C 161.394531 142.917969 169.136719 142.402344 176.601562 141.796875 C 177.570312 141.71875 178.535156 141.636719 179.492188 141.554688 C 179.839844 141.527344 180.1875 141.496094 180.53125 141.46875 C 180.664062 141.457031 180.792969 141.445312 180.925781 141.433594 C 181.816406 141.355469 182.710938 141.273438 183.59375 141.195312 C 184.511719 141.109375 185.421875 141.023438 186.328125 140.933594 C 197.074219 139.886719 206.941406 138.558594 215.074219 136.65625 C 216.308594 136.371094 217.5 136.070312 218.648438 135.753906 C 227.882812 133.226562 235.726562 128.429688 239.804688 126.523438 C 242.929688 125.066406 250.644531 123.707031 255.355469 120.253906 C 255.222656 120.578125 255.101562 120.890625 255 121.203125 C 254.6875 122.152344 254.527344 123.058594 254.511719 123.945312 C 254.476562 125.722656 255.238281 127.398438 256.59375 128.550781 C 256.832031 128.753906 257.082031 128.933594 257.339844 129.097656 C 257.339844 129.277344 257.578125 129.398438 258.007812 129.460938 C 260.320312 130.5625 263.351562 130.359375 267.058594 129.6875 C 277.585938 127.78125 282.515625 128.632812 260.851562 134.527344 " fill-opacity="1" fill-rule="nonzero"/><g clip-path="url(#a86ac6c6ca)"><path fill="#228910" d="M 291.320312 94.46875 C 291.320312 94.46875 279.964844 77.644531 288.949219 67.515625 C 297.933594 57.386719 312.574219 57.554688 325.40625 45.890625 C 324.265625 53.164062 328.179688 90.582031 291.320312 94.46875 " fill-opacity="1" fill-rule="nonzero"/></g><path fill="#22a507" d="M 308.140625 57.519531 C 300.796875 60.929688 294.453125 63.871094 290.023438 69.246094 C 285.785156 74.390625 287.792969 82.003906 290.308594 87.617188 C 291.546875 80.179688 294.816406 70.742188 303.207031 65.09375 C 303.207031 65.09375 293.855469 76.089844 293.328125 91.4375 C 293.925781 91.292969 294.539062 91.152344 295.117188 90.988281 C 317.671875 84.636719 321.597656 64.464844 322.316406 50.171875 C 317.457031 53.195312 312.632812 55.433594 308.140625 57.519531 " fill-opacity="1" fill-rule="nonzero"/><path fill="#6d3507" d="M 252.441406 112.828125 C 251.644531 114.535156 250.636719 116.230469 249.378906 117.894531 C 247.25 120.71875 244.410156 123.457031 240.695312 126.023438 C 240.695312 126.023438 239.734375 125.53125 238.324219 124.609375 C 237.640625 124.160156 236.847656 123.609375 236.007812 122.972656 C 240.410156 120.441406 246.128906 116.773438 252.441406 112.828125 " fill-opacity="1" fill-rule="nonzero"/><path fill="#228910" d="M 328.164062 112.65625 C 328.164062 112.65625 336.945312 99.164062 347.3125 102.242188 C 357.683594 105.320312 362.261719 115.738281 375 121.042969 C 369.261719 122.589844 342.871094 137.484375 328.164062 112.65625 " fill-opacity="1" fill-rule="nonzero"/><path fill="#22a507" d="M 360.863281 112.589844 C 355.988281 108.496094 351.777344 104.960938 346.382812 103.566406 C 341.21875 102.230469 336.238281 106.121094 332.898438 109.71875 C 338.792969 108.1875 346.816406 107.441406 353.679688 111.550781 C 353.679688 111.550781 342.558594 108.492188 331.046875 113.089844 C 331.347656 113.472656 331.644531 113.855469 331.953125 114.214844 C 343.890625 128.121094 360.054688 124.363281 370.84375 120.242188 C 367.054688 117.785156 363.847656 115.09375 360.863281 112.589844 " fill-opacity="1" fill-rule="nonzero"/><path fill="#228910" d="M 47.3125 140.957031 C 47.3125 140.957031 65.65625 138.675781 67.683594 126.429688 C 69.710938 114.191406 61.253906 104.238281 62.171875 88.433594 C 57.695312 93.578125 29.058594 113.320312 47.3125 140.957031 " fill-opacity="1" fill-rule="nonzero"/><path fill="#22a507" d="M 63.804688 107.261719 C 65.582031 114.34375 67.117188 120.46875 65.847656 126.730469 C 64.632812 132.726562 58.117188 135.910156 52.722656 137.546875 C 57.265625 132.238281 62.0625 124.335938 61.269531 115.1875 C 61.269531 115.1875 58.839844 128.203125 48.3125 137.769531 C 48.070312 137.265625 47.820312 136.761719 47.605469 136.269531 C 39.242188 116.96875 51.238281 102.183594 60.914062 93.121094 C 61.546875 98.265625 62.71875 102.925781 63.804688 107.261719 " fill-opacity="1" fill-rule="nonzero"/><g clip-path="url(#8f800361ab)"><path fill="#cfe500" d="M 284.640625 247.269531 C 284.640625 247.269531 284.46875 263.339844 276.480469 279.480469 C 276.230469 279.988281 275.96875 280.492188 275.707031 281 C 272.226562 287.609375 267.390625 294.152344 260.675781 299.519531 C 260.136719 299.953125 259.578125 300.378906 259.015625 300.792969 C 254.089844 304.417969 248.222656 307.425781 241.226562 309.425781 C 241.222656 309.429688 241.222656 309.429688 241.214844 309.429688 C 235.90625 310.949219 229.945312 311.894531 223.253906 312.09375 L 223.246094 312.09375 C 220.183594 312.1875 216.964844 312.125 213.585938 311.886719 C 195.992188 310.660156 183.796875 304.132812 175.558594 294.5 C 149.738281 264.308594 162.808594 203.59375 170.636719 179.726562 C 170.75 179.382812 170.863281 179.042969 170.972656 178.703125 C 172.351562 174.570312 173.679688 171.007812 174.761719 168.246094 C 173.507812 166.035156 173.054688 163.472656 173.808594 160.621094 C 180.550781 159.1875 182.785156 154.164062 182.09375 147.148438 L 182.09375 147.140625 C 182.066406 146.875 182.039062 146.601562 182 146.328125 C 181.964844 146.042969 181.921875 145.757812 181.871094 145.480469 C 181.558594 143.71875 180.980469 142.101562 180.089844 140.710938 C 180.070312 140.671875 180.046875 140.636719 180.023438 140.597656 C 179.964844 140.515625 179.90625 140.429688 179.851562 140.347656 C 179.828125 140.3125 179.808594 140.28125 179.78125 140.25 C 179.75 140.203125 179.714844 140.152344 179.675781 140.105469 C 179.648438 140.066406 179.617188 140.023438 179.585938 139.988281 C 179.523438 139.898438 179.453125 139.8125 179.382812 139.726562 C 179.324219 139.648438 179.257812 139.574219 179.195312 139.5 C 179.1875 139.492188 179.179688 139.480469 179.167969 139.46875 C 179.097656 139.386719 179.023438 139.304688 178.949219 139.222656 C 178.867188 139.136719 178.789062 139.054688 178.703125 138.96875 C 178.632812 138.898438 178.558594 138.824219 178.484375 138.75 C 178.367188 138.640625 178.25 138.535156 178.128906 138.433594 C 178.066406 138.375 178.003906 138.328125 177.945312 138.277344 C 177.925781 138.261719 177.910156 138.246094 177.890625 138.230469 C 177.824219 138.175781 177.757812 138.125 177.6875 138.070312 C 177.652344 138.042969 177.613281 138.015625 177.582031 137.988281 C 177.40625 137.859375 177.226562 137.734375 177.042969 137.613281 C 176.941406 137.546875 176.839844 137.480469 176.734375 137.417969 C 176.632812 137.355469 176.527344 137.292969 176.425781 137.238281 C 176.410156 137.226562 176.394531 137.21875 176.378906 137.210938 C 176.28125 137.15625 176.179688 137.101562 176.082031 137.050781 C 175.984375 137 175.886719 136.953125 175.785156 136.902344 C 175.757812 136.890625 175.730469 136.875 175.703125 136.863281 C 175.601562 136.816406 175.503906 136.769531 175.398438 136.726562 C 175.382812 136.71875 175.371094 136.710938 175.355469 136.707031 C 175.261719 136.664062 175.167969 136.625 175.070312 136.589844 C 174.921875 136.527344 174.773438 136.472656 174.625 136.414062 C 174.515625 136.378906 174.40625 136.339844 174.296875 136.304688 C 174.207031 136.273438 174.113281 136.242188 174.023438 136.214844 C 173.949219 136.191406 173.878906 136.171875 173.808594 136.148438 C 173.710938 136.121094 173.609375 136.097656 173.511719 136.070312 C 173.445312 136.050781 173.371094 136.03125 173.304688 136.015625 C 173.253906 136 173.199219 135.988281 173.148438 135.976562 C 173.074219 135.957031 172.996094 135.9375 172.917969 135.925781 C 172.914062 135.921875 172.90625 135.921875 172.902344 135.917969 L 172.898438 135.917969 C 172.886719 135.917969 172.871094 135.914062 172.855469 135.910156 C 172.714844 135.875 172.566406 135.847656 172.421875 135.820312 C 172.402344 135.816406 172.382812 135.8125 172.363281 135.808594 C 172.214844 135.78125 172.066406 135.757812 171.917969 135.734375 C 171.675781 135.695312 171.429688 135.660156 171.175781 135.632812 C 171.074219 135.621094 170.972656 135.609375 170.871094 135.601562 C 170.816406 135.59375 170.761719 135.589844 170.710938 135.582031 C 170.4375 135.558594 170.164062 135.539062 169.882812 135.527344 C 169.816406 135.523438 169.753906 135.523438 169.6875 135.519531 C 169.5625 135.511719 169.433594 135.507812 169.308594 135.507812 C 169.136719 135.503906 168.964844 135.5 168.792969 135.5 C 167.871094 135.5 166.898438 135.554688 165.867188 135.664062 C 163.90625 135.875 161.742188 136.292969 159.359375 136.949219 C 159.367188 136.769531 159.378906 136.59375 159.390625 136.417969 C 159.667969 132.195312 160.550781 128.382812 161.890625 125 C 163.214844 121.65625 164.984375 118.730469 167.074219 116.234375 C 168.351562 114.707031 169.753906 113.339844 171.238281 112.136719 C 171.414062 111.992188 171.589844 111.851562 171.769531 111.71875 C 171.835938 111.664062 171.902344 111.613281 171.964844 111.5625 C 176.984375 107.757812 182.90625 105.773438 188.609375 105.726562 C 189.425781 105.722656 190.242188 105.742188 191.050781 105.789062 C 191.1875 105.792969 191.328125 105.804688 191.464844 105.8125 C 191.570312 105.824219 191.671875 105.828125 191.777344 105.839844 C 191.925781 105.847656 192.074219 105.863281 192.222656 105.875 C 192.320312 105.882812 192.417969 105.890625 192.515625 105.902344 C 192.613281 105.914062 192.707031 105.921875 192.804688 105.933594 C 193.03125 105.957031 193.257812 105.984375 193.480469 106.015625 C 193.777344 106.054688 194.074219 106.097656 194.371094 106.144531 C 194.5 106.167969 194.632812 106.1875 194.761719 106.210938 C 194.878906 106.230469 194.996094 106.25 195.109375 106.273438 C 195.128906 106.277344 195.148438 106.28125 195.167969 106.28125 C 195.300781 106.308594 195.433594 106.335938 195.570312 106.363281 C 195.835938 106.414062 196.105469 106.476562 196.371094 106.535156 C 196.503906 106.566406 196.636719 106.597656 196.769531 106.632812 C 196.78125 106.636719 196.792969 106.640625 196.808594 106.640625 C 197.058594 106.703125 197.308594 106.769531 197.554688 106.839844 C 197.859375 106.925781 198.160156 107.015625 198.460938 107.113281 C 198.609375 107.160156 198.757812 107.210938 198.90625 107.261719 C 199.054688 107.3125 199.203125 107.363281 199.347656 107.417969 C 199.472656 107.460938 199.59375 107.503906 199.710938 107.550781 C 199.757812 107.570312 199.800781 107.585938 199.84375 107.605469 C 199.972656 107.652344 200.101562 107.703125 200.226562 107.757812 C 200.371094 107.8125 200.515625 107.875 200.65625 107.933594 C 200.660156 107.9375 200.667969 107.9375 200.671875 107.941406 C 200.8125 108.003906 200.949219 108.0625 201.089844 108.125 C 201.230469 108.191406 201.375 108.257812 201.511719 108.324219 C 201.65625 108.394531 201.792969 108.464844 201.933594 108.53125 C 202.207031 108.667969 202.476562 108.8125 202.742188 108.964844 C 202.757812 108.972656 202.769531 108.980469 202.785156 108.988281 C 203.050781 109.136719 203.3125 109.292969 203.574219 109.453125 C 203.707031 109.535156 203.839844 109.621094 203.96875 109.707031 C 204.101562 109.792969 204.230469 109.878906 204.359375 109.964844 C 204.359375 109.96875 204.363281 109.96875 204.363281 109.96875 C 204.476562 110.046875 204.589844 110.125 204.699219 110.203125 C 204.742188 110.234375 204.785156 110.265625 204.828125 110.296875 C 204.933594 110.371094 205.035156 110.449219 205.136719 110.523438 C 205.261719 110.621094 205.386719 110.714844 205.511719 110.816406 C 205.515625 110.816406 205.519531 110.820312 205.519531 110.820312 C 205.644531 110.917969 205.765625 111.019531 205.886719 111.117188 C 205.992188 111.203125 206.09375 111.292969 206.195312 111.378906 C 206.222656 111.398438 206.242188 111.417969 206.265625 111.441406 C 206.371094 111.53125 206.476562 111.625 206.582031 111.71875 C 206.601562 111.738281 206.617188 111.753906 206.636719 111.769531 C 206.742188 111.867188 206.847656 111.964844 206.953125 112.066406 C 206.964844 112.074219 206.972656 112.085938 206.980469 112.089844 C 207.082031 112.1875 207.179688 112.285156 207.277344 112.382812 C 207.296875 112.402344 207.320312 112.421875 207.339844 112.441406 C 207.441406 112.546875 207.542969 112.648438 207.644531 112.753906 C 207.664062 112.773438 207.679688 112.792969 207.699219 112.808594 C 207.792969 112.910156 207.886719 113.011719 207.984375 113.117188 C 207.992188 113.128906 208.003906 113.136719 208.015625 113.152344 C 208.113281 113.257812 208.210938 113.367188 208.308594 113.480469 C 208.316406 113.492188 208.324219 113.5 208.332031 113.511719 C 208.554688 113.761719 208.765625 114.023438 208.976562 114.289062 C 209.078125 114.414062 209.175781 114.546875 209.277344 114.679688 C 209.28125 114.679688 209.285156 114.6875 209.289062 114.695312 C 209.382812 114.816406 209.472656 114.941406 209.566406 115.070312 C 209.578125 115.085938 209.589844 115.105469 209.601562 115.121094 C 209.699219 115.257812 209.796875 115.398438 209.894531 115.535156 C 210.5 116.429688 211.066406 117.390625 211.578125 118.429688 C 211.648438 118.566406 211.710938 118.703125 211.777344 118.84375 C 211.835938 118.957031 211.890625 119.074219 211.945312 119.199219 C 211.992188 119.300781 212.042969 119.410156 212.085938 119.515625 C 212.136719 119.625 212.179688 119.730469 212.226562 119.839844 C 212.285156 119.976562 212.34375 120.113281 212.398438 120.253906 C 212.433594 120.332031 212.464844 120.414062 212.496094 120.5 C 212.546875 120.625 212.597656 120.75 212.644531 120.878906 C 212.675781 120.960938 212.710938 121.046875 212.742188 121.132812 C 212.761719 121.191406 212.785156 121.253906 212.808594 121.316406 C 212.835938 121.394531 212.863281 121.472656 212.894531 121.554688 C 212.960938 121.746094 213.027344 121.9375 213.089844 122.132812 C 213.125 122.230469 213.15625 122.328125 213.1875 122.429688 C 213.242188 122.601562 213.296875 122.773438 213.347656 122.949219 C 213.382812 123.070312 213.421875 123.191406 213.457031 123.3125 C 213.664062 124.027344 213.851562 124.773438 214.019531 125.542969 C 214.042969 125.636719 214.0625 125.730469 214.082031 125.824219 C 214.125 126.027344 214.167969 126.226562 214.207031 126.4375 C 214.257812 126.6875 214.304688 126.945312 214.351562 127.203125 C 214.4375 127.6875 214.515625 128.183594 214.585938 128.691406 C 214.613281 128.882812 214.636719 129.078125 214.664062 129.273438 C 214.667969 129.332031 214.675781 129.390625 214.6875 129.453125 C 214.703125 129.585938 214.71875 129.722656 214.734375 129.863281 C 214.75 130.011719 214.769531 130.164062 214.78125 130.3125 C 214.800781 130.464844 214.8125 130.617188 214.828125 130.769531 C 214.855469 131.039062 214.878906 131.3125 214.902344 131.589844 C 214.910156 131.6875 214.914062 131.78125 214.921875 131.878906 C 214.929688 131.984375 214.941406 132.097656 214.945312 132.210938 C 214.957031 132.351562 214.964844 132.496094 214.972656 132.640625 C 214.984375 132.785156 214.992188 132.929688 214.996094 133.078125 C 215 133.101562 215 133.128906 215.003906 133.15625 C 215.011719 133.304688 215.015625 133.457031 215.023438 133.609375 C 215.027344 133.726562 215.03125 133.84375 215.035156 133.957031 C 215.042969 134.074219 215.042969 134.195312 215.046875 134.3125 C 215.054688 134.570312 215.0625 134.835938 215.066406 135.097656 C 215.066406 135.128906 215.066406 135.160156 215.070312 135.191406 C 215.070312 135.328125 215.074219 135.46875 215.074219 135.605469 C 215.441406 176.5625 183.285156 239.765625 200.886719 267.5625 C 200.894531 267.574219 200.902344 267.585938 200.910156 267.601562 C 201.082031 267.875 201.261719 268.148438 201.449219 268.414062 C 201.554688 268.574219 201.667969 268.730469 201.78125 268.886719 C 202.550781 269.953125 203.402344 270.960938 204.34375 271.910156 C 204.496094 272.0625 204.652344 272.214844 204.8125 272.367188 C 204.890625 272.445312 204.972656 272.519531 205.050781 272.59375 C 205.375 272.894531 205.707031 273.191406 206.046875 273.476562 C 206.132812 273.546875 206.21875 273.617188 206.304688 273.6875 C 206.375 273.746094 206.445312 273.800781 206.515625 273.855469 C 206.707031 274.011719 206.902344 274.164062 207.101562 274.316406 C 207.183594 274.375 207.265625 274.4375 207.347656 274.5 C 207.652344 274.722656 207.964844 274.941406 208.28125 275.15625 C 208.351562 275.207031 208.429688 275.253906 208.503906 275.304688 C 208.589844 275.363281 208.679688 275.417969 208.765625 275.476562 C 208.8125 275.503906 208.851562 275.53125 208.898438 275.558594 C 208.980469 275.613281 209.066406 275.667969 209.152344 275.71875 C 209.230469 275.769531 209.308594 275.816406 209.386719 275.867188 C 209.488281 275.925781 209.589844 275.988281 209.691406 276.046875 C 210.023438 276.242188 210.359375 276.433594 210.707031 276.621094 C 210.800781 276.671875 210.898438 276.722656 210.996094 276.773438 C 211.941406 277.273438 212.941406 277.734375 213.988281 278.15625 C 214.109375 278.203125 214.230469 278.25 214.351562 278.296875 C 214.878906 278.503906 215.425781 278.703125 215.984375 278.890625 C 216.179688 278.957031 216.382812 279.023438 216.589844 279.089844 C 216.722656 279.132812 216.855469 279.171875 216.992188 279.214844 C 217.121094 279.253906 217.253906 279.292969 217.382812 279.332031 C 218.035156 279.527344 218.703125 279.707031 219.394531 279.875 C 248.511719 287.003906 250.230469 243.398438 250.230469 243.398438 L 252.390625 243.640625 L 284.640625 247.269531 " fill-opacity="1" fill-rule="nonzero"/></g><path fill="#0f6d01" d="M 218.835938 243.019531 C 225.144531 235.40625 229.5625 231.496094 224.609375 242.207031 C 219.066406 254.191406 217.824219 252.566406 218.835938 243.019531 " fill-opacity="1" fill-rule="nonzero"/><path fill="#0d5600" d="M 252.390625 243.640625 C 251.226562 251.957031 248.421875 264.488281 241.652344 275.542969 C 241.53125 275.742188 241.40625 275.941406 241.28125 276.140625 C 240.582031 277.253906 239.84375 278.347656 239.058594 279.421875 C 235.292969 284.59375 230.515625 289.253906 224.464844 292.75 C 223.796875 293.140625 223.109375 293.511719 222.40625 293.867188 C 214.617188 297.839844 204.855469 299.933594 192.628906 298.933594 C 191.425781 298.835938 190.253906 298.703125 189.109375 298.535156 C 188.550781 298.457031 188 298.367188 187.460938 298.269531 C 184.296875 297.710938 181.363281 296.894531 178.648438 295.835938 C 177.585938 295.425781 176.558594 294.980469 175.558594 294.5 C 149.742188 264.308594 162.808594 203.59375 170.636719 179.726562 C 170.75 179.382812 170.863281 179.042969 170.976562 178.703125 C 172.355469 174.570312 173.679688 171.007812 174.765625 168.246094 C 173.507812 166.03125 173.054688 163.472656 173.808594 160.621094 C 180.550781 159.1875 182.785156 154.164062 182.09375 147.148438 L 182.09375 147.140625 C 182.070312 146.875 182.039062 146.597656 182.003906 146.328125 C 181.964844 146.039062 181.921875 145.757812 181.871094 145.480469 C 181.558594 143.714844 180.976562 142.101562 180.09375 140.710938 C 180.070312 140.675781 180.046875 140.636719 180.023438 140.597656 C 179.964844 140.515625 179.90625 140.429688 179.851562 140.347656 C 179.828125 140.3125 179.808594 140.28125 179.785156 140.25 C 179.746094 140.199219 179.710938 140.152344 179.675781 140.105469 C 179.648438 140.066406 179.621094 140.023438 179.585938 139.984375 C 179.523438 139.898438 179.453125 139.8125 179.382812 139.726562 C 179.324219 139.648438 179.261719 139.574219 179.195312 139.5 C 179.1875 139.492188 179.179688 139.480469 179.171875 139.46875 C 179.097656 139.386719 179.023438 139.304688 178.949219 139.222656 C 178.871094 139.136719 178.789062 139.050781 178.707031 138.96875 C 178.632812 138.894531 178.558594 138.820312 178.484375 138.75 C 178.367188 138.640625 178.25 138.535156 178.128906 138.433594 C 178.066406 138.375 178.007812 138.324219 177.945312 138.277344 C 177.925781 138.261719 177.910156 138.246094 177.890625 138.230469 C 177.824219 138.175781 177.757812 138.121094 177.6875 138.070312 C 177.652344 138.042969 177.617188 138.015625 177.582031 137.988281 C 177.40625 137.859375 177.226562 137.734375 177.042969 137.613281 C 176.945312 137.546875 176.839844 137.480469 176.734375 137.417969 C 176.632812 137.355469 176.527344 137.292969 176.425781 137.234375 C 176.410156 137.226562 176.394531 137.21875 176.378906 137.210938 C 176.28125 137.15625 176.179688 137.101562 176.078125 137.050781 C 175.984375 137 175.886719 136.949219 175.785156 136.902344 C 175.757812 136.890625 175.730469 136.875 175.699219 136.863281 C 175.601562 136.816406 175.5 136.769531 175.398438 136.726562 C 175.382812 136.71875 175.371094 136.710938 175.355469 136.707031 C 175.265625 136.664062 175.167969 136.625 175.070312 136.585938 C 174.921875 136.527344 174.773438 136.46875 174.625 136.414062 C 174.519531 136.375 174.40625 136.339844 174.296875 136.300781 C 174.207031 136.273438 174.113281 136.242188 174.023438 136.214844 C 173.949219 136.191406 173.882812 136.171875 173.808594 136.148438 C 173.710938 136.125 173.613281 136.09375 173.511719 136.070312 C 173.441406 136.046875 173.375 136.03125 173.304688 136.015625 C 173.253906 136 173.203125 135.988281 173.152344 135.976562 C 173.074219 135.960938 172.996094 135.941406 172.917969 135.921875 C 172.914062 135.921875 172.910156 135.921875 172.902344 135.917969 C 172.886719 135.914062 172.871094 135.914062 172.859375 135.910156 C 172.714844 135.878906 172.566406 135.847656 172.421875 135.820312 C 172.402344 135.816406 172.382812 135.8125 172.363281 135.808594 C 172.214844 135.78125 172.066406 135.757812 171.917969 135.734375 C 171.675781 135.695312 171.429688 135.660156 171.175781 135.632812 C 171.074219 135.621094 170.972656 135.609375 170.871094 135.601562 C 170.816406 135.59375 170.761719 135.589844 170.710938 135.582031 C 170.4375 135.558594 170.164062 135.539062 169.882812 135.527344 C 169.816406 135.523438 169.753906 135.519531 169.6875 135.519531 C 169.5625 135.511719 169.4375 135.507812 169.308594 135.503906 C 169.136719 135.5 168.964844 135.5 168.792969 135.5 C 167.875 135.5 166.898438 135.554688 165.871094 135.664062 C 165.84375 134.925781 165.789062 134.160156 165.703125 133.375 C 165.476562 131.277344 164.949219 129.367188 164.074219 127.753906 C 164.054688 127.722656 164.035156 127.683594 164.015625 127.644531 C 163.449219 126.632812 162.746094 125.742188 161.890625 125 C 163.210938 121.65625 164.984375 118.730469 167.074219 116.234375 C 168.351562 114.707031 169.753906 113.339844 171.238281 112.136719 C 171.414062 111.992188 171.589844 111.851562 171.769531 111.71875 C 171.835938 111.664062 171.902344 111.613281 171.964844 111.5625 C 176.984375 107.757812 182.910156 105.769531 188.609375 105.726562 C 189.425781 105.722656 190.242188 105.742188 191.050781 105.785156 C 191.1875 105.792969 191.328125 105.800781 191.464844 105.8125 C 191.570312 105.820312 191.675781 105.828125 191.777344 105.839844 C 191.929688 105.847656 192.078125 105.859375 192.222656 105.875 C 192.320312 105.882812 192.417969 105.890625 192.515625 105.902344 C 192.613281 105.914062 192.707031 105.921875 192.804688 105.933594 C 193.03125 105.957031 193.257812 105.984375 193.480469 106.011719 C 193.777344 106.054688 194.074219 106.097656 194.371094 106.144531 C 194.5 106.164062 194.632812 106.1875 194.761719 106.210938 C 194.878906 106.230469 194.996094 106.25 195.113281 106.273438 C 195.128906 106.273438 195.148438 106.277344 195.167969 106.28125 C 195.300781 106.308594 195.433594 106.335938 195.570312 106.359375 C 195.835938 106.414062 196.105469 106.472656 196.371094 106.535156 C 196.503906 106.566406 196.636719 106.597656 196.769531 106.628906 C 196.78125 106.636719 196.792969 106.636719 196.808594 106.640625 C 197.058594 106.703125 197.308594 106.769531 197.554688 106.839844 C 197.863281 106.925781 198.160156 107.015625 198.460938 107.113281 C 198.609375 107.160156 198.757812 107.210938 198.90625 107.261719 C 199.054688 107.3125 199.203125 107.363281 199.347656 107.417969 C 199.472656 107.460938 199.589844 107.503906 199.710938 107.550781 C 199.757812 107.570312 199.800781 107.585938 199.847656 107.605469 C 199.972656 107.652344 200.101562 107.703125 200.230469 107.753906 C 200.371094 107.8125 200.515625 107.871094 200.65625 107.933594 C 200.660156 107.9375 200.667969 107.941406 200.671875 107.941406 C 200.8125 108 200.949219 108.0625 201.089844 108.125 C 201.230469 108.191406 201.375 108.257812 201.515625 108.324219 C 201.65625 108.394531 201.792969 108.460938 201.933594 108.53125 C 202.207031 108.667969 202.476562 108.816406 202.746094 108.964844 C 202.757812 108.972656 202.769531 108.980469 202.785156 108.984375 C 203.050781 109.136719 203.3125 109.292969 203.574219 109.453125 C 203.707031 109.535156 203.839844 109.621094 203.972656 109.707031 C 204.101562 109.792969 204.230469 109.878906 204.359375 109.964844 C 204.359375 109.964844 204.363281 109.964844 204.363281 109.96875 C 204.476562 110.046875 204.585938 110.125 204.699219 110.203125 C 204.742188 110.234375 204.785156 110.265625 204.828125 110.296875 C 204.929688 110.371094 205.035156 110.445312 205.136719 110.523438 C 205.261719 110.621094 205.386719 110.714844 205.511719 110.816406 C 205.515625 110.816406 205.519531 110.820312 205.519531 110.820312 C 205.644531 110.917969 205.765625 111.019531 205.886719 111.117188 C 205.992188 111.203125 206.09375 111.292969 206.195312 111.378906 C 206.222656 111.398438 206.242188 111.417969 206.269531 111.441406 C 206.371094 111.53125 206.476562 111.625 206.582031 111.71875 C 206.601562 111.734375 206.617188 111.753906 206.636719 111.769531 C 206.742188 111.867188 206.851562 111.964844 206.953125 112.066406 C 206.964844 112.074219 206.972656 112.082031 206.980469 112.089844 C 207.082031 112.1875 207.179688 112.285156 207.28125 112.382812 C 207.296875 112.402344 207.320312 112.421875 207.339844 112.441406 C 207.441406 112.542969 207.542969 112.648438 207.644531 112.753906 C 207.664062 112.773438 207.679688 112.789062 207.699219 112.808594 C 207.792969 112.910156 207.886719 113.011719 207.984375 113.117188 C 207.992188 113.125 208.003906 113.140625 208.015625 113.148438 C 208.113281 113.257812 208.210938 113.367188 208.308594 113.480469 C 208.316406 113.492188 208.324219 113.5 208.332031 113.507812 C 208.554688 113.761719 208.765625 114.019531 208.976562 114.289062 C 209.078125 114.414062 209.175781 114.546875 209.277344 114.675781 C 209.28125 114.679688 209.285156 114.6875 209.289062 114.691406 C 209.382812 114.816406 209.472656 114.941406 209.566406 115.070312 C 209.578125 115.085938 209.589844 115.105469 209.605469 115.121094 C 209.699219 115.257812 209.796875 115.394531 209.890625 115.535156 C 210.503906 116.425781 211.066406 117.390625 211.582031 118.429688 C 211.648438 118.566406 211.714844 118.703125 211.777344 118.839844 C 211.835938 118.960938 211.890625 119.074219 211.945312 119.195312 C 211.992188 119.300781 212.042969 119.410156 212.085938 119.515625 C 212.136719 119.625 212.179688 119.730469 212.226562 119.839844 C 212.285156 119.976562 212.34375 120.113281 212.398438 120.253906 C 212.433594 120.332031 212.464844 120.414062 212.5 120.496094 C 212.546875 120.621094 212.597656 120.75 212.644531 120.878906 C 212.679688 120.960938 212.710938 121.046875 212.742188 121.128906 C 212.761719 121.191406 212.785156 121.253906 212.808594 121.316406 C 212.835938 121.394531 212.867188 121.472656 212.894531 121.554688 C 212.960938 121.746094 213.027344 121.9375 213.089844 122.132812 C 213.125 122.230469 213.15625 122.328125 213.1875 122.425781 C 213.242188 122.597656 213.296875 122.773438 213.351562 122.949219 C 213.382812 123.070312 213.421875 123.1875 213.457031 123.3125 C 213.664062 124.027344 213.851562 124.773438 214.023438 125.542969 C 214.042969 125.636719 214.0625 125.730469 214.082031 125.824219 C 214.128906 126.023438 214.167969 126.226562 214.210938 126.433594 C 214.257812 126.6875 214.304688 126.941406 214.351562 127.203125 C 214.4375 127.6875 214.515625 128.183594 214.585938 128.691406 C 214.613281 128.882812 214.640625 129.078125 214.664062 129.273438 C 214.671875 129.332031 214.675781 129.390625 214.6875 129.449219 C 214.703125 129.585938 214.71875 129.722656 214.734375 129.863281 C 214.753906 130.011719 214.769531 130.160156 214.785156 130.3125 C 214.800781 130.464844 214.816406 130.617188 214.832031 130.769531 C 214.855469 131.039062 214.878906 131.3125 214.902344 131.589844 C 214.910156 131.6875 214.914062 131.78125 214.921875 131.875 C 214.929688 131.988281 214.941406 132.097656 214.949219 132.207031 C 214.957031 132.351562 214.964844 132.496094 214.972656 132.640625 C 214.984375 132.785156 214.988281 132.929688 214.996094 133.074219 C 215 133.101562 215 133.128906 215.003906 133.15625 C 215.011719 133.304688 215.019531 133.457031 215.023438 133.609375 C 215.027344 133.722656 215.03125 133.839844 215.039062 133.957031 C 215.039062 134.074219 215.046875 134.195312 215.046875 134.3125 C 215.054688 134.570312 215.0625 134.835938 215.066406 135.097656 C 215.066406 135.128906 215.066406 135.160156 215.070312 135.1875 C 215.070312 135.328125 215.070312 135.46875 215.074219 135.605469 C 215.445312 176.5625 183.285156 239.765625 200.886719 267.5625 C 200.886719 267.585938 200.894531 267.597656 200.910156 267.597656 C 201.082031 267.875 201.261719 268.148438 201.449219 268.414062 C 201.558594 268.574219 201.667969 268.730469 201.78125 268.886719 C 202.550781 269.953125 203.402344 270.960938 204.34375 271.910156 C 204.496094 272.066406 204.652344 272.21875 204.8125 272.367188 C 204.894531 272.445312 204.972656 272.519531 205.054688 272.59375 C 205.375 272.894531 205.707031 273.191406 206.046875 273.476562 C 206.132812 273.546875 206.21875 273.617188 206.304688 273.6875 C 206.375 273.746094 206.445312 273.800781 206.515625 273.855469 C 206.707031 274.011719 206.902344 274.164062 207.105469 274.3125 C 207.183594 274.375 207.265625 274.4375 207.351562 274.5 C 207.652344 274.722656 207.964844 274.941406 208.28125 275.15625 C 208.351562 275.207031 208.429688 275.253906 208.503906 275.304688 C 208.589844 275.363281 208.675781 275.417969 208.765625 275.476562 C 208.808594 275.503906 208.851562 275.53125 208.898438 275.558594 C 208.980469 275.613281 209.066406 275.667969 209.152344 275.71875 C 209.230469 275.769531 209.308594 275.816406 209.390625 275.867188 C 209.488281 275.925781 209.589844 275.988281 209.691406 276.046875 C 210.023438 276.242188 210.359375 276.433594 210.707031 276.617188 C 210.800781 276.671875 210.898438 276.722656 210.996094 276.773438 C 211.941406 277.273438 212.941406 277.734375 213.992188 278.15625 C 214.109375 278.203125 214.230469 278.25 214.351562 278.296875 C 214.882812 278.503906 215.425781 278.703125 215.980469 278.890625 C 216.183594 278.957031 216.386719 279.023438 216.589844 279.089844 C 216.722656 279.132812 216.855469 279.171875 216.992188 279.214844 C 217.121094 279.253906 217.25 279.292969 217.382812 279.332031 C 218.035156 279.527344 218.707031 279.707031 219.394531 279.875 C 248.511719 287.003906 250.230469 243.398438 250.230469 243.398438 L 252.390625 243.640625 " fill-opacity="1" fill-rule="nonzero"/><path fill="#0f6d01" d="M 239.058594 279.421875 C 235.292969 284.59375 230.515625 289.253906 224.464844 292.75 C 223.796875 293.140625 223.109375 293.511719 222.40625 293.867188 C 214.617188 297.839844 204.855469 299.933594 192.628906 298.933594 C 191.425781 298.835938 190.253906 298.703125 189.105469 298.535156 C 188.550781 298.457031 188 298.367188 187.457031 298.269531 C 184.296875 297.710938 181.363281 296.894531 178.644531 295.835938 C 178.074219 295.570312 177.511719 295.289062 176.964844 295 C 152.21875 263.921875 167.414062 203.703125 176.074219 180.125 C 176.199219 179.785156 176.324219 179.449219 176.449219 179.117188 C 177.972656 175.03125 179.421875 171.519531 180.601562 168.796875 C 179.425781 166.542969 179.0625 163.96875 179.917969 161.140625 C 186.378906 160.003906 183.199219 153.910156 182.09375 147.148438 L 182.09375 147.140625 C 182.003906 146.59375 181.929688 146.035156 181.871094 145.480469 C 181.863281 145.414062 181.859375 145.351562 181.851562 145.285156 C 181.660156 143.183594 180.183594 135.402344 172.902344 135.921875 L 172.898438 135.921875 C 172.886719 135.921875 172.871094 135.921875 172.855469 135.921875 L 172.855469 135.910156 C 172.859375 135.175781 172.832031 134.414062 172.773438 133.628906 C 172.617188 131.527344 172.160156 129.601562 171.339844 127.957031 C 171.324219 127.921875 171.304688 127.882812 171.285156 127.847656 C 170.757812 126.816406 170.085938 125.898438 169.253906 125.128906 C 170.296875 122.742188 168.742188 119.433594 167.074219 116.234375 C 168.351562 114.707031 169.753906 113.339844 171.238281 112.136719 C 171.414062 111.992188 171.589844 111.855469 171.769531 111.71875 C 171.835938 111.664062 171.902344 111.613281 171.964844 111.566406 C 176.984375 107.757812 182.90625 105.773438 188.609375 105.726562 C 189.425781 105.722656 190.242188 105.742188 191.050781 105.789062 C 191.1875 105.796875 191.328125 105.804688 191.464844 105.816406 C 191.570312 105.820312 191.671875 105.828125 191.777344 105.839844 C 191.925781 105.847656 192.074219 105.863281 192.222656 105.875 C 192.320312 105.886719 192.417969 105.894531 192.515625 105.902344 C 192.613281 105.914062 192.707031 105.921875 192.804688 105.933594 C 193.03125 105.957031 193.257812 105.984375 193.480469 106.015625 C 193.777344 106.054688 194.074219 106.097656 194.371094 106.144531 C 194.5 106.164062 194.632812 106.1875 194.761719 106.210938 C 194.878906 106.230469 194.996094 106.25 195.113281 106.273438 C 195.128906 106.277344 195.148438 106.28125 195.167969 106.285156 C 195.300781 106.308594 195.433594 106.335938 195.570312 106.363281 C 195.835938 106.414062 196.105469 106.476562 196.371094 106.535156 C 196.503906 106.566406 196.636719 106.597656 196.769531 106.632812 C 196.777344 106.636719 196.792969 106.636719 196.804688 106.640625 C 197.058594 106.703125 197.308594 106.769531 197.554688 106.84375 C 197.859375 106.925781 198.160156 107.015625 198.460938 107.113281 C 198.609375 107.160156 198.757812 107.210938 198.90625 107.261719 C 199.054688 107.3125 199.203125 107.363281 199.351562 107.417969 C 199.46875 107.460938 199.589844 107.507812 199.710938 107.550781 C 199.757812 107.570312 199.800781 107.585938 199.847656 107.605469 C 199.972656 107.652344 200.097656 107.703125 200.226562 107.753906 C 200.371094 107.8125 200.511719 107.875 200.65625 107.933594 C 200.660156 107.9375 200.667969 107.941406 200.671875 107.941406 C 200.8125 108.003906 200.949219 108.066406 201.089844 108.125 C 201.230469 108.191406 201.371094 108.257812 201.511719 108.324219 C 201.652344 108.394531 201.796875 108.464844 201.933594 108.535156 C 202.207031 108.667969 202.476562 108.8125 202.742188 108.964844 C 202.757812 108.972656 202.769531 108.980469 202.785156 108.988281 C 203.050781 109.136719 203.3125 109.292969 203.574219 109.453125 C 203.707031 109.535156 203.839844 109.621094 203.96875 109.707031 C 204.101562 109.792969 204.230469 109.878906 204.359375 109.964844 C 204.359375 109.96875 204.363281 109.96875 204.363281 109.96875 C 204.476562 110.046875 204.585938 110.125 204.699219 110.203125 C 204.742188 110.234375 204.785156 110.265625 204.828125 110.296875 C 204.933594 110.371094 205.03125 110.449219 205.136719 110.527344 C 205.261719 110.621094 205.386719 110.71875 205.511719 110.816406 C 205.515625 110.820312 205.519531 110.820312 205.519531 110.820312 C 205.644531 110.917969 205.765625 111.019531 205.886719 111.117188 C 205.992188 111.203125 206.09375 111.292969 206.195312 111.378906 C 206.222656 111.402344 206.242188 111.417969 206.265625 111.441406 C 206.371094 111.53125 206.476562 111.625 206.582031 111.71875 C 206.597656 111.734375 206.617188 111.753906 206.636719 111.769531 C 206.742188 111.867188 206.847656 111.964844 206.953125 112.066406 C 206.964844 112.074219 206.972656 112.082031 206.980469 112.089844 C 207.082031 112.1875 207.179688 112.285156 207.28125 112.382812 C 207.300781 112.402344 207.320312 112.421875 207.339844 112.441406 C 207.441406 112.546875 207.542969 112.648438 207.644531 112.753906 C 207.664062 112.773438 207.679688 112.789062 207.699219 112.8125 C 207.792969 112.910156 207.886719 113.011719 207.984375 113.117188 C 207.992188 113.128906 208.003906 113.140625 208.011719 113.152344 C 208.113281 113.257812 208.207031 113.367188 208.308594 113.480469 C 208.316406 113.492188 208.324219 113.5 208.332031 113.507812 C 208.554688 113.761719 208.765625 114.023438 208.976562 114.289062 C 209.078125 114.417969 209.175781 114.546875 209.277344 114.675781 C 209.28125 114.683594 209.285156 114.6875 209.289062 114.695312 C 209.382812 114.816406 209.472656 114.941406 209.566406 115.070312 C 209.578125 115.085938 209.589844 115.105469 209.601562 115.121094 C 209.699219 115.261719 209.796875 115.394531 209.890625 115.539062 C 210.5 116.429688 211.066406 117.390625 211.578125 118.429688 C 211.648438 118.566406 211.714844 118.703125 211.777344 118.839844 C 211.835938 118.960938 211.890625 119.078125 211.945312 119.195312 C 211.992188 119.300781 212.039062 119.410156 212.085938 119.515625 C 212.132812 119.625 212.179688 119.730469 212.226562 119.839844 C 212.285156 119.972656 212.34375 120.113281 212.398438 120.253906 C 212.433594 120.332031 212.464844 120.414062 212.496094 120.5 C 212.546875 120.625 212.597656 120.75 212.644531 120.878906 C 212.675781 120.960938 212.710938 121.046875 212.738281 121.132812 C 212.761719 121.191406 212.785156 121.253906 212.808594 121.316406 C 212.835938 121.394531 212.863281 121.472656 212.894531 121.554688 C 212.960938 121.746094 213.027344 121.9375 213.089844 122.132812 C 213.125 122.230469 213.15625 122.328125 213.1875 122.425781 C 213.242188 122.597656 213.296875 122.773438 213.347656 122.949219 C 213.382812 123.070312 213.417969 123.191406 213.457031 123.3125 C 213.664062 124.027344 213.851562 124.773438 214.023438 125.542969 C 214.042969 125.636719 214.0625 125.730469 214.082031 125.824219 C 214.125 126.023438 214.167969 126.226562 214.207031 126.4375 C 214.257812 126.6875 214.304688 126.945312 214.347656 127.203125 C 214.4375 127.6875 214.515625 128.183594 214.585938 128.691406 C 214.613281 128.882812 214.636719 129.078125 214.664062 129.273438 C 214.671875 129.332031 214.675781 129.390625 214.6875 129.453125 C 214.703125 129.589844 214.71875 129.722656 214.734375 129.863281 C 214.753906 130.011719 214.769531 130.164062 214.785156 130.3125 C 214.800781 130.464844 214.8125 130.617188 214.828125 130.769531 C 214.855469 131.039062 214.878906 131.3125 214.902344 131.589844 C 214.90625 131.6875 214.914062 131.78125 214.921875 131.878906 C 214.929688 131.984375 214.9375 132.097656 214.949219 132.207031 C 214.957031 132.351562 214.964844 132.496094 214.972656 132.640625 C 214.984375 132.785156 214.988281 132.929688 214.996094 133.078125 C 215 133.101562 215 133.128906 215 133.15625 C 215.007812 133.304688 215.015625 133.457031 215.023438 133.609375 C 215.027344 133.726562 215.03125 133.839844 215.035156 133.957031 C 215.039062 134.074219 215.042969 134.195312 215.046875 134.3125 C 215.054688 134.574219 215.0625 134.835938 215.066406 135.097656 C 215.066406 135.128906 215.066406 135.160156 215.070312 135.1875 C 215.070312 135.328125 215.074219 135.46875 215.074219 135.605469 C 215.441406 176.5625 183.285156 239.765625 200.886719 267.5625 C 200.886719 267.585938 200.894531 267.597656 200.90625 267.597656 C 201.082031 267.875 201.261719 268.148438 201.449219 268.414062 C 201.558594 268.574219 201.667969 268.730469 201.78125 268.886719 C 202.550781 269.953125 203.402344 270.960938 204.34375 271.910156 C 204.496094 272.066406 204.652344 272.21875 204.8125 272.367188 C 204.890625 272.445312 204.972656 272.519531 205.050781 272.59375 C 205.375 272.894531 205.707031 273.191406 206.046875 273.476562 C 206.132812 273.546875 206.21875 273.621094 206.304688 273.6875 C 206.375 273.746094 206.445312 273.800781 206.511719 273.855469 C 206.707031 274.011719 206.902344 274.164062 207.101562 274.316406 C 207.183594 274.375 207.265625 274.4375 207.347656 274.5 C 207.652344 274.722656 207.964844 274.941406 208.28125 275.15625 C 211.578125 278.09375 215.851562 280.390625 221.285156 281.921875 C 228.828125 284.050781 234.621094 282.652344 239.058594 279.421875 " fill-opacity="1" fill-rule="nonzero"/><path fill="#0d5600" d="M 170.972656 178.703125 C 172.351562 174.570312 173.679688 171.007812 174.761719 168.246094 C 173.507812 166.035156 173.054688 163.472656 173.808594 160.621094 C 180.8125 159.132812 182.953125 153.773438 182.003906 146.328125 C 181.734375 144.234375 181.117188 142.320312 180.089844 140.710938 C 180.070312 140.671875 180.042969 140.636719 180.023438 140.597656 C 177.085938 135.933594 170.679688 133.65625 159.390625 136.417969 C 160.117188 125.464844 164.875 117.285156 171.238281 112.136719 C 171.414062 111.992188 171.59375 111.851562 171.769531 111.71875 C 178.640625 115.472656 183.75 123.25 185.851562 137.207031 C 188.9375 157.742188 184.070312 174.917969 170.972656 178.703125 " fill-opacity="1" fill-rule="nonzero"/><path fill="#0f6d01" d="M 163.445312 179.976562 C 158.476562 180.21875 152.484375 178.71875 148.050781 175.839844 C 143.546875 172.910156 140.648438 168.554688 142.078125 163.152344 C 149.078125 161.664062 151.21875 156.304688 150.269531 148.859375 C 149.230469 140.667969 142.824219 135.308594 127.628906 139.480469 C 128.234375 128.257812 133.042969 119.898438 139.507812 114.667969 C 144.675781 110.488281 150.898438 108.304688 156.878906 108.257812 C 170.382812 108.15625 181.066406 115.09375 183.34375 138.140625 C 185.589844 160.902344 178.875 179.230469 163.445312 179.976562 " fill-opacity="1" fill-rule="nonzero"/><path fill="#0d5600" d="M 148.050781 175.839844 C 143.546875 172.910156 140.652344 168.554688 142.078125 163.148438 C 149.078125 161.660156 151.222656 156.304688 150.273438 148.859375 C 149.230469 140.667969 142.824219 135.308594 127.628906 139.476562 C 128.234375 128.257812 133.042969 119.894531 139.507812 114.667969 C 146.132812 118.445312 151.09375 126.273438 153.207031 140.308594 C 155.429688 155.054688 153.75 168.109375 148.050781 175.839844 " fill-opacity="1" fill-rule="nonzero"/><path fill="#0f6d01" d="M 131.121094 183.105469 C 127.6875 183.269531 123.769531 182.605469 120.214844 181.230469 C 113.382812 178.589844 107.890625 173.328125 109.753906 166.277344 C 116.753906 164.789062 118.894531 159.429688 117.945312 151.984375 C 116.902344 143.796875 110.496094 138.4375 95.300781 142.605469 C 95.976562 130.109375 101.859375 121.164062 109.441406 116.136719 C 114.109375 113.035156 119.421875 111.425781 124.550781 111.382812 C 138.054688 111.28125 148.742188 118.21875 151.015625 141.265625 C 153.265625 164.027344 146.546875 182.355469 131.121094 183.105469 " fill-opacity="1" fill-rule="nonzero"/><path fill="#0d5600" d="M 120.214844 181.230469 C 113.382812 178.589844 107.890625 173.328125 109.753906 166.277344 C 116.753906 164.789062 118.894531 159.429688 117.945312 151.984375 C 116.902344 143.796875 110.496094 138.433594 95.300781 142.605469 C 95.976562 130.109375 101.863281 121.164062 109.441406 116.136719 C 118.296875 118.8125 125 126.785156 127.371094 143.90625 C 129.597656 159.945312 127.238281 173.941406 120.214844 181.230469 " fill-opacity="1" fill-rule="nonzero"/><path fill="#0d5600" d="M 111.769531 183.550781 C 109.75 184.859375 107.417969 185.8125 104.75 186.378906 C 94.9375 188.464844 81 183.101562 83.382812 169.550781 C 84.4375 169.328125 85.382812 169.015625 86.222656 168.621094 C 86.503906 168.492188 86.773438 168.347656 87.03125 168.203125 C 91.121094 165.828125 92.335938 161.210938 91.578125 155.261719 C 90.539062 147.097656 84.175781 141.75 69.09375 145.835938 C 69.042969 145.851562 68.988281 145.867188 68.933594 145.878906 C 69.800781 129.820312 76.890625 120.535156 86.527344 117.355469 C 89.003906 116.539062 91.652344 116.125 94.40625 116.101562 C 107.914062 116 119.839844 121.046875 122.117188 144.09375 C 122.140625 144.328125 122.164062 144.5625 122.183594 144.792969 C 123.910156 163.277344 121.3125 177.367188 111.769531 183.550781 " fill-opacity="1" fill-rule="nonzero"/><path fill="#0f6d01" d="M 111.769531 183.550781 C 109.75 184.859375 107.417969 185.8125 104.75 186.378906 C 94.9375 188.464844 81 183.101562 83.382812 169.550781 C 84.4375 169.328125 85.382812 169.015625 86.222656 168.621094 C 86.503906 168.492188 86.773438 168.347656 87.03125 168.203125 C 93.546875 166.359375 95.421875 161.132812 94.320312 154.0625 C 93.097656 146.242188 84.128906 139.753906 69.09375 145.835938 C 68.601562 146.035156 68.101562 146.25 67.59375 146.476562 C 68.074219 131.519531 73.550781 119.675781 86.527344 117.355469 C 89.003906 116.539062 91.652344 116.125 94.40625 116.101562 C 107.914062 116 119.839844 121.046875 122.117188 144.09375 C 122.140625 144.328125 122.164062 144.5625 122.183594 144.792969 C 123.910156 163.277344 121.3125 177.367188 111.769531 183.550781 " fill-opacity="1" fill-rule="nonzero"/><g clip-path="url(#d1dad1e54d)"><path fill="#8cb200" d="M 241.925781 309.179688 C 233.539062 312.234375 223.390625 313.042969 212.929688 310.929688 C 202.730469 308.871094 193.894531 304.371094 187.414062 298.527344 C 187.425781 298.441406 187.441406 298.355469 187.460938 298.269531 C 188 298.367188 188.550781 298.457031 189.105469 298.535156 C 196.542969 302.390625 205.25 305.476562 214.757812 307.398438 C 224.296875 309.324219 233.550781 309.855469 241.925781 309.179688 " fill-opacity="1" fill-rule="nonzero"/></g><path fill="#8cb200" d="M 260.675781 299.519531 C 260.136719 299.953125 259.578125 300.378906 259.011719 300.792969 C 253.03125 302.105469 246.320312 302.203125 239.449219 300.816406 C 233.015625 299.515625 227.21875 297.074219 222.40625 293.867188 C 223.109375 293.511719 223.796875 293.140625 224.464844 292.75 C 229.503906 294.882812 235.070312 296.613281 241.003906 297.8125 C 247.832031 299.191406 254.492188 299.726562 260.675781 299.519531 " fill-opacity="1" fill-rule="nonzero"/><path fill="#8cb200" d="M 276.480469 279.480469 C 276.230469 279.988281 275.96875 280.492188 275.707031 281 C 271.132812 282.375 266.003906 282.964844 260.640625 282.566406 C 253.199219 282.019531 246.492188 279.660156 241.28125 276.140625 C 241.40625 275.941406 241.53125 275.742188 241.652344 275.542969 C 247.539062 277.765625 254.339844 279.28125 261.648438 279.824219 C 266.820312 280.207031 271.820312 280.066406 276.480469 279.480469 " fill-opacity="1" fill-rule="nonzero"/><path fill="#8cb200" d="M 99.746094 197.4375 C 99.6875 197.75 99.632812 198.0625 99.574219 198.371094 C 97.4375 198.796875 95.125 198.902344 92.730469 198.625 C 89.699219 198.277344 86.925781 197.363281 84.589844 196.042969 C 84.546875 195.742188 84.5 195.441406 84.449219 195.140625 C 87.125 196.125 90.121094 196.84375 93.316406 197.210938 C 95.53125 197.464844 97.6875 197.535156 99.746094 197.4375 " fill-opacity="1" fill-rule="nonzero"/><path fill="#8cb200" d="M 96.035156 211.066406 C 95.953125 211.277344 95.867188 211.484375 95.78125 211.695312 C 94.289062 212.007812 92.65625 212.085938 90.976562 211.894531 C 88.992188 211.664062 87.171875 211.082031 85.617188 210.246094 C 85.625 210.039062 85.625 209.832031 85.628906 209.621094 C 87.375 210.234375 89.316406 210.6875 91.378906 210.921875 C 92.984375 211.109375 94.550781 211.152344 96.035156 211.066406 " fill-opacity="1" fill-rule="nonzero"/><path fill="#0f6d01" d="M 319.601562 216.578125 C 308.082031 209.25 309.140625 199.4375 298.796875 191.476562 C 289.546875 184.359375 272.101562 192.40625 269.042969 192.324219 C 265.980469 192.246094 248.269531 183.289062 238.734375 189.921875 C 228.074219 197.335938 229.34375 207.210938 217.53125 213.933594 C 207.105469 219.863281 197.246094 253.347656 246.328125 270.996094 C 255.789062 273.285156 264.226562 273.945312 266.90625 274.109375 L 266.90625 274.132812 C 266.90625 274.132812 267.058594 274.136719 267.347656 274.136719 C 267.640625 274.152344 267.792969 274.15625 267.792969 274.15625 L 267.792969 274.132812 C 270.476562 274.109375 278.933594 273.882812 288.480469 272.089844 C 338.238281 257.003906 329.769531 223.042969 319.601562 216.578125 " fill-opacity="1" fill-rule="nonzero"/><path fill="#188c0c" d="M 324.589844 234.410156 C 324.566406 235.199219 324.507812 236 324.402344 236.808594 C 323.347656 245.046875 317.132812 260.21875 287.363281 269.273438 C 277.9375 271.039062 269.523438 271.238281 267.160156 271.261719 L 266.726562 271.261719 L 266.421875 271.242188 C 264.0625 271.097656 255.667969 270.460938 246.320312 268.210938 C 216.960938 257.621094 211.378906 242.144531 210.667969 233.859375 C 210.578125 232.816406 210.554688 231.785156 210.59375 230.78125 C 210.867188 223.457031 214.3125 217.316406 217.980469 215.226562 C 224.71875 211.390625 227.515625 206.613281 230.226562 201.984375 C 232.527344 198.050781 234.703125 194.339844 239.347656 191.109375 C 241.441406 189.65625 244.289062 188.964844 247.816406 189.054688 C 253.371094 189.199219 259.433594 191.226562 263.445312 192.5625 C 266.085938 193.445312 267.398438 193.867188 268.394531 193.894531 C 269.398438 193.921875 270.710938 193.558594 273.355469 192.800781 C 277.292969 191.675781 283.246094 189.972656 288.652344 190.113281 C 292.097656 190.203125 294.875 191.039062 296.902344 192.601562 C 301.417969 196.078125 303.570312 199.902344 305.851562 203.957031 C 308.53125 208.71875 311.304688 213.640625 317.867188 217.8125 C 321.558594 220.160156 324.824219 226.792969 324.589844 234.410156 " fill-opacity="1" fill-rule="nonzero"/><path fill="#23a814" d="M 324.589844 234.410156 C 315.175781 239.058594 308.464844 245.363281 294.90625 243.3125 C 287.605469 242.207031 280.953125 236.019531 267.527344 235.761719 C 252.011719 235.46875 249.589844 241.601562 241.339844 242.136719 C 227.652344 243.019531 220.203125 236.355469 210.59375 230.78125 C 210.867188 223.457031 214.3125 217.316406 217.980469 215.226562 C 224.71875 211.390625 227.515625 206.613281 230.226562 201.984375 C 232.527344 198.050781 234.703125 194.339844 239.347656 191.109375 C 241.441406 189.65625 244.289062 188.964844 247.816406 189.054688 C 253.371094 189.199219 259.433594 191.226562 263.445312 192.5625 C 266.085938 193.445312 267.398438 193.867188 268.394531 193.894531 C 269.398438 193.921875 270.710938 193.558594 273.355469 192.800781 C 277.292969 191.675781 283.246094 189.972656 288.652344 190.113281 C 292.097656 190.203125 294.875 191.039062 296.902344 192.601562 C 301.417969 196.078125 303.570312 199.902344 305.851562 203.957031 C 308.53125 208.71875 311.304688 213.640625 317.867188 217.8125 C 321.558594 220.160156 324.824219 226.792969 324.589844 234.410156 " fill-opacity="1" fill-rule="nonzero"/><path fill="#083303" d="M 299.558594 199.960938 C 301.789062 201.660156 303.671875 203.828125 305.140625 206.234375 C 304.519531 201.648438 302.328125 197.316406 298.945312 194.742188 C 293.597656 190.667969 287.1875 192.457031 284.140625 198.652344 C 288.214844 195.582031 294.164062 195.855469 299.558594 199.960938 " fill-opacity="1" fill-rule="nonzero"/><path fill="#083303" d="M 236.984375 199.03125 C 234.78125 200.804688 232.929688 203.039062 231.5 205.5 C 232.054688 200.890625 234.179688 196.480469 237.523438 193.789062 C 242.808594 189.527344 249.242188 191.089844 252.382812 197.175781 C 248.261719 194.25 242.316406 194.734375 236.984375 199.03125 " fill-opacity="1" fill-rule="nonzero"/><path fill="#17840b" d="M 256.875 204.457031 C 254.9375 203.003906 252.617188 202.03125 250.066406 201.722656 C 242.175781 200.769531 235.046875 206.566406 234.152344 214.671875 C 233.863281 217.285156 234.257812 219.820312 235.1875 222.085938 C 237.144531 226.847656 241.472656 230.425781 246.824219 231.070312 C 254.71875 232.023438 261.847656 226.226562 262.742188 218.121094 C 263.347656 212.632812 260.941406 207.496094 256.875 204.457031 " fill-opacity="1" fill-rule="nonzero"/><path fill="#b7b7b7" d="M 246.511719 228.242188 C 253.367188 229.074219 259.554688 224.035156 260.332031 217 C 260.859375 212.234375 258.769531 207.769531 255.238281 205.128906 C 253.554688 203.871094 251.539062 203.023438 249.328125 202.757812 C 242.472656 201.929688 236.28125 206.964844 235.503906 214.003906 C 235.253906 216.273438 235.59375 218.472656 236.402344 220.441406 C 238.105469 224.574219 241.863281 227.683594 246.511719 228.242188 " fill-opacity="1" fill-rule="nonzero"/><path fill="#ffffff" d="M 245.988281 227.332031 C 252.730469 228.144531 258.820312 223.195312 259.585938 216.273438 C 260.070312 211.890625 258.304688 207.769531 255.238281 205.128906 C 253.554688 203.871094 251.539062 203.027344 249.328125 202.757812 C 242.46875 201.929688 236.28125 206.964844 235.503906 214.003906 C 235.25 216.273438 235.59375 218.472656 236.402344 220.441406 C 238.207031 224.113281 241.71875 226.816406 245.988281 227.332031 " fill-opacity="1" fill-rule="nonzero"/><path fill="#020202" d="M 247.484375 224.453125 C 251.402344 224.925781 254.929688 222.050781 255.375 218.035156 C 255.820312 214.015625 253.007812 210.378906 249.09375 209.90625 C 245.183594 209.433594 241.648438 212.308594 241.203125 216.324219 C 240.757812 220.339844 243.570312 223.980469 247.484375 224.453125 " fill-opacity="1" fill-rule="nonzero"/><path fill="#ffffff" d="M 243.835938 214.597656 C 245.386719 214.785156 246.78125 213.648438 246.957031 212.058594 C 247.132812 210.46875 246.023438 209.03125 244.472656 208.84375 C 242.925781 208.65625 241.527344 209.792969 241.355469 211.382812 C 241.175781 212.972656 242.289062 214.410156 243.835938 214.597656 " fill-opacity="1" fill-rule="nonzero"/><path fill="#ffffff" d="M 247.484375 215.414062 C 248.175781 215.496094 248.796875 214.992188 248.875 214.285156 C 248.953125 213.578125 248.457031 212.9375 247.765625 212.851562 C 247.078125 212.769531 246.457031 213.277344 246.375 213.984375 C 246.296875 214.691406 246.792969 215.332031 247.484375 215.414062 " fill-opacity="1" fill-rule="nonzero"/><path fill="#17840b" d="M 296.742188 205.488281 C 294.800781 204.039062 292.484375 203.066406 289.9375 202.757812 C 282.039062 201.804688 274.914062 207.601562 274.019531 215.707031 C 273.726562 218.316406 274.125 220.851562 275.054688 223.117188 C 277.011719 227.878906 281.34375 231.457031 286.691406 232.105469 C 294.585938 233.058594 301.710938 227.261719 302.605469 219.15625 C 303.214844 213.667969 300.808594 208.527344 296.742188 205.488281 " fill-opacity="1" fill-rule="nonzero"/><path fill="#b7b7b7" d="M 286.332031 229.324219 C 293.1875 230.152344 299.378906 225.117188 300.152344 218.078125 C 300.679688 213.3125 298.59375 208.851562 295.0625 206.210938 C 293.375 204.949219 291.363281 204.105469 289.148438 203.839844 C 282.292969 203.011719 276.101562 208.042969 275.328125 215.082031 C 275.074219 217.351562 275.417969 219.554688 276.226562 221.523438 C 277.925781 225.65625 281.6875 228.765625 286.332031 229.324219 " fill-opacity="1" fill-rule="nonzero"/><path fill="#ffffff" d="M 285.8125 228.414062 C 292.554688 229.226562 298.640625 224.273438 299.40625 217.351562 C 299.890625 212.96875 298.128906 208.851562 295.058594 206.210938 C 293.375 204.949219 291.363281 204.105469 289.148438 203.839844 C 282.292969 203.011719 276.101562 208.042969 275.324219 215.082031 C 275.074219 217.351562 275.417969 219.554688 276.226562 221.523438 C 278.03125 225.195312 281.539062 227.898438 285.8125 228.414062 " fill-opacity="1" fill-rule="nonzero"/><path fill="#020202" d="M 285.824219 225.488281 C 289.738281 225.960938 293.273438 223.085938 293.71875 219.070312 C 294.160156 215.054688 291.347656 211.414062 287.433594 210.941406 C 283.523438 210.46875 279.988281 213.34375 279.542969 217.359375 C 279.101562 221.378906 281.914062 225.015625 285.824219 225.488281 " fill-opacity="1" fill-rule="nonzero"/><path fill="#ffffff" d="M 282.175781 215.632812 C 283.722656 215.820312 285.121094 214.683594 285.296875 213.09375 C 285.472656 211.507812 284.363281 210.066406 282.8125 209.878906 C 281.265625 209.691406 279.871094 210.828125 279.691406 212.417969 C 279.515625 214.007812 280.628906 215.445312 282.175781 215.632812 " fill-opacity="1" fill-rule="nonzero"/><path fill="#ffffff" d="M 285.820312 216.449219 C 286.511719 216.53125 287.132812 216.027344 287.214844 215.320312 C 287.292969 214.613281 286.796875 213.972656 286.105469 213.886719 C 285.417969 213.804688 284.796875 214.3125 284.71875 215.019531 C 284.636719 215.726562 285.136719 216.367188 285.820312 216.449219 " fill-opacity="1" fill-rule="nonzero"/><path fill="#083303" d="M 313.035156 251.414062 C 312.914062 251.527344 308.878906 255.214844 300.125 258.433594 C 299.09375 258.8125 297.992188 259.183594 296.828125 259.546875 C 289.972656 261.660156 280.785156 263.320312 269.003906 263.164062 C 268.554688 263.160156 268.105469 263.152344 267.652344 263.140625 L 267.503906 263.136719 C 264.039062 263.039062 260.796875 262.800781 257.773438 262.449219 C 249.800781 261.523438 243.332031 259.816406 238.222656 257.929688 C 237.046875 257.496094 235.941406 257.046875 234.90625 256.597656 C 226.539062 252.976562 222.769531 249.1875 222.652344 249.070312 C 226.476562 250.625 230.136719 251.824219 233.605469 252.734375 C 235.429688 253.210938 237.199219 253.605469 238.910156 253.933594 C 248.6875 255.800781 256.550781 255.394531 261.59375 254.667969 C 265.023438 254.171875 267.152344 253.535156 267.707031 253.359375 L 267.707031 253.304688 C 267.707031 253.304688 267.734375 253.3125 267.78125 253.332031 C 267.824219 253.316406 267.855469 253.308594 267.855469 253.308594 L 267.851562 253.363281 C 268.183594 253.488281 269.085938 253.808594 270.503906 254.199219 C 274.835938 255.375 283.980469 257.125 296.308594 255.464844 C 298.023438 255.234375 299.796875 254.941406 301.628906 254.566406 C 305.21875 253.835938 309.035156 252.808594 313.035156 251.414062 " fill-opacity="1" fill-rule="nonzero"/><path fill="#083303" d="M 263.277344 248.109375 C 263.300781 248.121094 261.695312 246.984375 259.832031 246.46875 C 257.984375 245.847656 255.875 245.839844 255.242188 245.679688 C 253.972656 245.308594 253.078125 244.09375 253.375 242.648438 C 253.664062 241.207031 255.582031 240.082031 257.449219 240.613281 C 258.398438 240.796875 260.472656 242.421875 261.628906 244.285156 C 262.898438 246.101562 263.25 248.15625 263.277344 248.109375 " fill-opacity="1" fill-rule="nonzero"/><path fill="#083303" d="M 272.679688 248.351562 C 272.65625 248.363281 274.304688 247.3125 276.1875 246.890625 C 278.058594 246.367188 280.167969 246.46875 280.804688 246.339844 C 282.089844 246.035156 283.035156 244.871094 282.796875 243.410156 C 282.5625 241.953125 280.699219 240.734375 278.808594 241.164062 C 277.855469 241.300781 275.714844 242.816406 274.480469 244.617188 C 273.140625 246.367188 272.703125 248.402344 272.679688 248.351562 " fill-opacity="1" fill-rule="nonzero"/><path fill="#ffffff" d="M 238.890625 254.886719 C 238.585938 256.183594 238.355469 257.515625 238.203125 258.878906 C 238.09375 259.832031 238.027344 260.796875 238 261.78125 C 237.976562 262.804688 237.546875 262.949219 237.023438 262.039062 C 236.222656 260.617188 235.507812 259.121094 234.886719 257.550781 C 234.390625 256.304688 233.957031 255.015625 233.585938 253.6875 C 235.410156 254.160156 237.179688 254.554688 238.890625 254.886719 " fill-opacity="1" fill-rule="nonzero"/><path fill="#ffffff" d="M 301.605469 255.519531 C 301.167969 256.851562 300.664062 258.144531 300.101562 259.386719 C 299.433594 260.871094 298.675781 262.28125 297.847656 263.613281 C 297.289062 264.5 296.863281 264.332031 296.886719 263.308594 C 296.898438 262.359375 296.871094 261.421875 296.8125 260.496094 C 296.714844 259.109375 296.539062 257.746094 296.289062 256.417969 C 298.003906 256.1875 299.777344 255.894531 301.605469 255.519531 " fill-opacity="1" fill-rule="nonzero"/><path fill="#c60909" d="M 268.8125 276.316406 C 269.742188 291.980469 266.597656 305 265.179688 301.105469 C 263.726562 296.859375 261.179688 287.730469 260.136719 288.71875 C 257.40625 290.988281 253.988281 303.109375 253.082031 301.546875 C 250.496094 290.832031 252.992188 277.519531 256.6875 267.921875 C 257.019531 267.019531 257.367188 266.144531 257.714844 265.304688 C 258.996094 262.226562 260.351562 259.601562 261.539062 257.523438 C 264.960938 257.027344 267.09375 256.386719 267.648438 256.210938 L 267.652344 256.15625 C 267.652344 256.15625 267.675781 256.167969 267.722656 256.183594 C 267.765625 256.171875 267.796875 256.160156 267.796875 256.160156 L 267.792969 256.214844 C 268.125 256.34375 269.027344 256.664062 270.445312 257.050781 C 269.90625 258.964844 269.273438 261.890625 268.945312 266.019531 C 268.714844 268.859375 268.628906 272.273438 268.8125 276.316406 " fill-opacity="1" fill-rule="nonzero"/><path fill="#e8e200" d="M 236.96875 235.28125 C 236.753906 236.976562 234.785156 238.105469 232.570312 237.800781 C 230.359375 237.496094 228.738281 235.875 228.953125 234.175781 C 229.167969 232.480469 231.136719 231.355469 233.351562 231.660156 C 235.5625 231.964844 237.183594 233.585938 236.96875 235.28125 " fill-opacity="1" fill-rule="nonzero"/><path fill="#e8e200" d="M 225.265625 230.488281 C 225.136719 231.492188 223.984375 232.164062 222.691406 231.984375 C 221.398438 231.804688 220.453125 230.847656 220.582031 229.84375 C 220.707031 228.835938 221.859375 228.167969 223.15625 228.347656 C 224.449219 228.523438 225.394531 229.484375 225.265625 230.488281 " fill-opacity="1" fill-rule="nonzero"/><path fill="#e8e200" d="M 232.066406 228.175781 C 231.9375 229.179688 230.785156 229.851562 229.492188 229.671875 C 228.199219 229.496094 227.253906 228.535156 227.378906 227.53125 C 227.507812 226.527344 228.660156 225.855469 229.953125 226.035156 C 231.246094 226.210938 232.191406 227.171875 232.066406 228.175781 " fill-opacity="1" fill-rule="nonzero"/><path fill="#e8e200" d="M 297.316406 237.503906 C 297.460938 239.207031 299.382812 240.4375 301.605469 240.246094 C 303.828125 240.054688 305.511719 238.519531 305.371094 236.8125 C 305.222656 235.109375 303.304688 233.882812 301.078125 234.070312 C 298.855469 234.261719 297.167969 235.796875 297.316406 237.503906 " fill-opacity="1" fill-rule="nonzero"/><path fill="#e8e200" d="M 311.574219 232.726562 C 311.660156 233.738281 312.78125 234.46875 314.082031 234.355469 C 315.378906 234.246094 316.363281 233.335938 316.28125 232.328125 C 316.195312 231.316406 315.070312 230.585938 313.769531 230.699219 C 312.472656 230.808594 311.488281 231.71875 311.574219 232.726562 " fill-opacity="1" fill-rule="nonzero"/><path fill="#e8e200" d="M 303.789062 230.683594 C 303.875 231.691406 305 232.421875 306.300781 232.308594 C 307.597656 232.199219 308.582031 231.289062 308.496094 230.28125 C 308.414062 229.269531 307.289062 228.539062 305.988281 228.652344 C 304.6875 228.761719 303.707031 229.671875 303.789062 230.683594 " fill-opacity="1" fill-rule="nonzero"/><path fill="#e8e200" d="M 194.089844 168.925781 C 192.609375 168.746094 191.207031 170.210938 190.957031 172.203125 C 190.710938 174.195312 191.710938 175.953125 193.191406 176.136719 C 194.675781 176.316406 196.078125 174.851562 196.328125 172.859375 C 196.574219 170.867188 195.574219 169.109375 194.089844 168.925781 " fill-opacity="1" fill-rule="nonzero"/><path fill="#e8e200" d="M 197.421875 184.457031 C 196.453125 184.433594 195.644531 185.46875 195.617188 186.769531 C 195.589844 188.066406 196.351562 189.140625 197.320312 189.160156 C 198.285156 189.183594 199.09375 188.148438 199.121094 186.851562 C 199.148438 185.550781 198.390625 184.480469 197.421875 184.457031 " fill-opacity="1" fill-rule="nonzero"/><path fill="#e8e200" d="M 201.710938 159.832031 C 200.761719 159.652344 199.792969 160.539062 199.550781 161.816406 C 199.308594 163.09375 199.882812 164.277344 200.832031 164.457031 C 201.78125 164.640625 202.75 163.753906 202.992188 162.476562 C 203.234375 161.199219 202.660156 160.015625 201.710938 159.832031 " fill-opacity="1" fill-rule="nonzero"/><path fill="#188c0c" d="M 111.292969 143.480469 C 109.734375 145.007812 106.535156 133.507812 97.25 129.359375 C 88.207031 124.714844 77.230469 129.414062 77.445312 127.242188 C 77.523438 126.292969 80.5625 123.484375 85.175781 121.582031 C 89.746094 119.679688 95.890625 118.679688 101.117188 121.308594 C 106.4375 123.738281 109.503906 129.15625 110.875 133.910156 C 112.277344 138.699219 111.984375 142.824219 111.292969 143.480469 " fill-opacity="1" fill-rule="nonzero"/><path fill="#188c0c" d="M 139.863281 143.398438 C 137.851562 144.25 139.085938 132.378906 131.964844 125.121094 C 125.246094 117.492188 113.308594 117.851562 114.304688 115.910156 C 114.726562 115.054688 118.582031 113.550781 123.574219 113.46875 C 128.523438 113.367188 134.605469 114.683594 138.511719 119.042969 C 142.570312 123.253906 143.441406 129.414062 142.976562 134.339844 C 142.527344 139.308594 140.746094 143.039062 139.863281 143.398438 " fill-opacity="1" fill-rule="nonzero"/><path fill="#188c0c" d="M 171.601562 139.855469 C 169.660156 140.847656 170.03125 128.917969 162.402344 122.195312 C 155.152344 115.070312 143.273438 116.289062 144.125 114.28125 C 144.484375 113.398438 148.21875 111.621094 153.191406 111.175781 C 158.121094 110.71875 164.289062 111.59375 168.496094 115.65625 C 172.847656 119.5625 174.164062 125.648438 174.054688 130.59375 C 173.964844 135.582031 172.457031 139.433594 171.601562 139.855469 " fill-opacity="1" fill-rule="nonzero"/><path fill="#188c0c" d="M 203.207031 138.585938 C 201.183594 139.40625 202.585938 127.554688 195.5625 120.199219 C 188.953125 112.476562 177.015625 112.667969 178.035156 110.742188 C 178.46875 109.890625 182.34375 108.441406 187.335938 108.429688 C 192.285156 108.398438 198.351562 109.800781 202.195312 114.210938 C 206.199219 118.476562 206.980469 124.648438 206.449219 129.570312 C 205.929688 134.53125 204.097656 138.238281 203.207031 138.585938 " fill-opacity="1" fill-rule="nonzero"/><path fill="#188c0c" d="M 192.382812 183.886719 C 194.308594 185.820312 184.0625 204.09375 182.6875 228.53125 C 180.761719 252.933594 188.453125 272.421875 186.285156 274.078125 C 185.339844 274.832031 181.746094 270.914062 178.585938 262.648438 C 175.433594 254.488281 172.710938 241.976562 173.769531 227.929688 C 174.613281 213.871094 178.992188 201.839844 183.214844 194.175781 C 187.460938 186.410156 191.546875 183.011719 192.382812 183.886719 " fill-opacity="1" fill-rule="nonzero"/><path fill="#e8e200" d="M 106.550781 153.960938 C 105.058594 154.035156 103.929688 155.722656 104.023438 157.726562 C 104.117188 159.726562 105.40625 161.292969 106.898438 161.21875 C 108.390625 161.144531 109.519531 159.460938 109.425781 157.457031 C 109.328125 155.453125 108.042969 153.886719 106.550781 153.960938 " fill-opacity="1" fill-rule="nonzero"/><path fill="#e8e200" d="M 108.8125 138.53125 C 107.894531 138.839844 107.488281 140.085938 107.90625 141.316406 C 108.324219 142.550781 109.40625 143.296875 110.320312 142.988281 C 111.238281 142.679688 111.644531 141.433594 111.226562 140.199219 C 110.8125 138.96875 109.730469 138.222656 108.8125 138.53125 " fill-opacity="1" fill-rule="nonzero"/><path fill="#e8e200" d="M 112.179688 170.148438 C 111.226562 169.992188 110.28125 170.90625 110.070312 172.1875 C 109.863281 173.472656 110.46875 174.636719 111.421875 174.796875 C 112.375 174.953125 113.320312 174.039062 113.53125 172.757812 C 113.738281 171.476562 113.136719 170.308594 112.179688 170.148438 " fill-opacity="1" fill-rule="nonzero"/><path fill="#e8e200" d="M 104.972656 126.699219 C 104.070312 127.054688 103.730469 128.324219 104.210938 129.53125 C 104.691406 130.738281 105.808594 131.433594 106.707031 131.078125 C 107.609375 130.71875 107.949219 129.453125 107.46875 128.246094 C 106.988281 127.039062 105.871094 126.347656 104.972656 126.699219 " fill-opacity="1" fill-rule="nonzero"/><path fill="#e8e200" d="M 89.550781 134.625 C 89.03125 135.4375 89.5 136.664062 90.597656 137.363281 C 91.695312 138.058594 93.003906 137.964844 93.527344 137.148438 C 94.046875 136.332031 93.578125 135.105469 92.480469 134.410156 C 91.382812 133.710938 90.070312 133.808594 89.550781 134.625 " fill-opacity="1" fill-rule="nonzero"/><path fill="#e8e200" d="M 87.453125 123.15625 C 87.238281 124.097656 88.089844 125.097656 89.359375 125.382812 C 90.628906 125.671875 91.832031 125.140625 92.046875 124.199219 C 92.261719 123.253906 91.410156 122.257812 90.140625 121.96875 C 88.871094 121.683594 87.671875 122.214844 87.453125 123.15625 " fill-opacity="1" fill-rule="nonzero"/><path fill="#e8e200" d="M 140.589844 147.34375 C 139.195312 147.878906 138.640625 149.832031 139.355469 151.707031 C 140.066406 153.582031 141.773438 154.671875 143.171875 154.136719 C 144.566406 153.605469 145.121094 151.652344 144.40625 149.777344 C 143.695312 147.902344 141.988281 146.8125 140.589844 147.34375 " fill-opacity="1" fill-rule="nonzero"/><path fill="#e8e200" d="M 144.125 135.433594 C 143.160156 135.496094 142.445312 136.59375 142.527344 137.890625 C 142.613281 139.191406 143.460938 140.191406 144.429688 140.132812 C 145.394531 140.070312 146.109375 138.96875 146.027344 137.671875 C 145.941406 136.375 145.089844 135.375 144.125 135.433594 " fill-opacity="1" fill-rule="nonzero"/><path fill="#e8e200" d="M 138.191406 120.894531 C 137.289062 121.25 136.949219 122.519531 137.429688 123.726562 C 137.910156 124.933594 139.027344 125.625 139.929688 125.269531 C 140.828125 124.914062 141.171875 123.648438 140.6875 122.4375 C 140.210938 121.230469 139.089844 120.539062 138.191406 120.894531 " fill-opacity="1" fill-rule="nonzero"/><path fill="#e8e200" d="M 120.675781 117.347656 C 120.457031 118.292969 121.3125 119.289062 122.582031 119.578125 C 123.847656 119.867188 125.050781 119.332031 125.269531 118.390625 C 125.484375 117.449219 124.628906 116.453125 123.363281 116.164062 C 122.09375 115.875 120.890625 116.40625 120.675781 117.347656 " fill-opacity="1" fill-rule="nonzero"/><path fill="#e8e200" d="M 139.128906 167.871094 C 138.203125 167.597656 137.152344 168.386719 136.785156 169.632812 C 136.417969 170.878906 136.871094 172.113281 137.800781 172.386719 C 138.726562 172.664062 139.777344 171.875 140.144531 170.628906 C 140.511719 169.378906 140.058594 168.144531 139.128906 167.871094 " fill-opacity="1" fill-rule="nonzero"/><path fill="#e8e200" d="M 164.3125 134.058594 C 162.964844 134.699219 162.5625 136.6875 163.421875 138.503906 C 164.277344 140.316406 166.066406 141.265625 167.417969 140.628906 C 168.765625 139.984375 169.164062 137.996094 168.308594 136.183594 C 167.449219 134.367188 165.660156 133.417969 164.3125 134.058594 " fill-opacity="1" fill-rule="nonzero"/><path fill="#e8e200" d="M 177.710938 140.699219 C 176.769531 140.914062 176.242188 142.117188 176.53125 143.382812 C 176.824219 144.652344 177.828125 145.503906 178.769531 145.285156 C 179.710938 145.070312 180.242188 143.871094 179.949219 142.605469 C 179.65625 141.335938 178.65625 140.484375 177.710938 140.699219 " fill-opacity="1" fill-rule="nonzero"/><path fill="#e8e200" d="M 176.953125 157.070312 C 176.007812 156.863281 175.015625 157.726562 174.742188 158.996094 C 174.46875 160.269531 175.011719 161.464844 175.957031 161.671875 C 176.902344 161.875 177.890625 161.011719 178.167969 159.742188 C 178.441406 158.472656 177.898438 157.277344 176.953125 157.070312 " fill-opacity="1" fill-rule="nonzero"/><path fill="#e8e200" d="M 166.144531 166.859375 C 165.246094 166.503906 164.128906 167.191406 163.652344 168.402344 C 163.175781 169.613281 163.519531 170.878906 164.417969 171.238281 C 165.316406 171.59375 166.433594 170.902344 166.910156 169.695312 C 167.386719 168.484375 167.046875 167.214844 166.144531 166.859375 " fill-opacity="1" fill-rule="nonzero"/><path fill="#e8e200" d="M 168.132812 118.363281 C 167.234375 118.71875 166.894531 119.988281 167.375 121.195312 C 167.851562 122.402344 168.972656 123.09375 169.871094 122.738281 C 170.773438 122.382812 171.113281 121.117188 170.632812 119.90625 C 170.152344 118.699219 169.035156 118.007812 168.132812 118.363281 " fill-opacity="1" fill-rule="nonzero"/><path fill="#e8e200" d="M 150.617188 114.820312 C 150.402344 115.761719 151.253906 116.761719 152.523438 117.046875 C 153.789062 117.335938 154.992188 116.804688 155.210938 115.863281 C 155.425781 114.917969 154.574219 113.921875 153.304688 113.632812 C 152.035156 113.347656 150.832031 113.878906 150.617188 114.820312 " fill-opacity="1" fill-rule="nonzero"/><path fill="#e8e200" d="M 195.746094 130.039062 C 194.398438 130.675781 194 132.667969 194.855469 134.484375 C 195.714844 136.296875 197.5 137.246094 198.851562 136.605469 C 200.199219 135.964844 200.597656 133.976562 199.742188 132.160156 C 198.882812 130.347656 197.097656 129.394531 195.746094 130.039062 " fill-opacity="1" fill-rule="nonzero"/><path fill="#e8e200" d="M 202.363281 139.421875 C 201.449219 139.734375 201.042969 140.980469 201.457031 142.210938 C 201.875 143.441406 202.957031 144.191406 203.875 143.882812 C 204.792969 143.574219 205.199219 142.324219 204.78125 141.09375 C 204.363281 139.863281 203.28125 139.113281 202.363281 139.421875 " fill-opacity="1" fill-rule="nonzero"/><path fill="#e8e200" d="M 197.183594 114.789062 C 196.285156 115.144531 195.941406 116.414062 196.421875 117.621094 C 196.902344 118.828125 198.019531 119.519531 198.921875 119.164062 C 199.820312 118.808594 200.160156 117.542969 199.683594 116.335938 C 199.203125 115.125 198.082031 114.433594 197.183594 114.789062 " fill-opacity="1" fill-rule="nonzero"/><path fill="#e8e200" d="M 179.667969 111.246094 C 179.449219 112.1875 180.304688 113.1875 181.574219 113.472656 C 182.839844 113.761719 184.042969 113.230469 184.257812 112.285156 C 184.476562 111.34375 183.621094 110.347656 182.355469 110.058594 C 181.085938 109.773438 179.882812 110.304688 179.667969 111.246094 " fill-opacity="1" fill-rule="nonzero"/><path fill="#e8e200" d="M 183.570312 230.371094 C 181.808594 230.429688 180.445312 232.421875 180.523438 234.824219 C 180.601562 237.222656 182.097656 239.121094 183.859375 239.066406 C 185.621094 239.007812 186.984375 237.011719 186.90625 234.613281 C 186.828125 232.210938 185.335938 230.3125 183.570312 230.371094 " fill-opacity="1" fill-rule="nonzero"/><path fill="#e8e200" d="M 209.101562 286.097656 C 208.800781 287.84375 210.464844 289.613281 212.816406 290.050781 C 215.167969 290.488281 217.316406 289.429688 217.613281 287.679688 C 217.910156 285.9375 216.246094 284.164062 213.894531 283.726562 C 211.546875 283.289062 209.398438 284.351562 209.101562 286.097656 " fill-opacity="1" fill-rule="nonzero"/><path fill="#e8e200" d="M 173.867188 255.796875 C 172.464844 256.316406 171.894531 258.265625 172.585938 260.148438 C 173.277344 262.03125 174.976562 263.132812 176.375 262.613281 C 177.777344 262.089844 178.347656 260.140625 177.65625 258.261719 C 176.964844 256.378906 175.265625 255.273438 173.867188 255.796875 " fill-opacity="1" fill-rule="nonzero"/><path fill="#e8e200" d="M 191.78125 286.636719 C 191.667969 287.597656 192.621094 288.5 193.914062 288.652344 C 195.203125 288.800781 196.34375 288.144531 196.460938 287.1875 C 196.574219 286.226562 195.617188 285.324219 194.328125 285.171875 C 193.035156 285.019531 191.894531 285.675781 191.78125 286.636719 " fill-opacity="1" fill-rule="nonzero"/><path fill="#e8e200" d="M 186.367188 262.160156 C 185.738281 262.894531 186.03125 264.175781 187.023438 265.015625 C 188.011719 265.859375 189.324219 265.945312 189.953125 265.210938 C 190.582031 264.476562 190.289062 263.199219 189.300781 262.355469 C 188.308594 261.511719 186.996094 261.425781 186.367188 262.160156 " fill-opacity="1" fill-rule="nonzero"/><path fill="#e8e200" d="M 181.863281 274.621094 C 181.460938 275.738281 182.355469 277.082031 183.855469 277.621094 C 185.359375 278.15625 186.90625 277.6875 187.308594 276.570312 C 187.710938 275.453125 186.820312 274.113281 185.316406 273.574219 C 183.8125 273.035156 182.269531 273.503906 181.863281 274.621094 " fill-opacity="1" fill-rule="nonzero"/><path fill="#e8e200" d="M 176.832031 220.726562 C 175.882812 220.546875 174.914062 221.433594 174.671875 222.710938 C 174.429688 223.988281 175.003906 225.171875 175.953125 225.351562 C 176.902344 225.535156 177.871094 224.648438 178.113281 223.371094 C 178.355469 222.09375 177.78125 220.910156 176.832031 220.726562 " fill-opacity="1" fill-rule="nonzero"/><path fill="#e8e200" d="M 189.027344 205.253906 C 187.542969 205.074219 186.140625 206.539062 185.894531 208.53125 C 185.644531 210.523438 186.644531 212.28125 188.128906 212.464844 C 189.609375 212.644531 191.015625 211.179688 191.261719 209.1875 C 191.511719 207.195312 190.511719 205.4375 189.027344 205.253906 " fill-opacity="1" fill-rule="nonzero"/><path fill="#e8e200" d="M 185.652344 194.757812 C 184.160156 194.832031 183.03125 196.515625 183.125 198.519531 C 183.222656 200.523438 184.507812 202.085938 186 202.011719 C 187.492188 201.9375 188.625 200.253906 188.527344 198.25 C 188.433594 196.246094 187.144531 194.683594 185.652344 194.757812 " fill-opacity="1" fill-rule="nonzero"/><path fill="#228910" d="M 239.953125 124.683594 C 239.953125 124.683594 224.050781 116.476562 226.710938 104.847656 C 229.371094 93.214844 240.765625 87.15625 245.75 72.710938 C 247.945312 78.816406 266.8125 106.101562 239.953125 124.683594 " fill-opacity="1" fill-rule="nonzero"/><path fill="#22a507" d="M 237.320312 89.003906 C 233.082031 94.742188 229.421875 99.703125 228.273438 105.730469 C 227.171875 111.5 231.949219 116.542969 236.269531 119.816406 C 234.082031 113.539062 232.609375 104.859375 236.710938 96.945312 C 236.710938 96.945312 234.128906 109.402344 240.21875 121.496094 C 240.625 121.128906 241.035156 120.761719 241.414062 120.390625 C 256.167969 105.945312 250.664062 88.683594 245.171875 77.328125 C 242.695312 81.71875 239.910156 85.492188 237.320312 89.003906 " fill-opacity="1" fill-rule="nonzero"/></svg>